<svg xmlns="http://www.w3.org/2000/svg" width="17.859" height="23.812" viewBox="0 0 17.859 23.812">
  <g id="Group_266" data-name="Group 266" transform="translate(0)">
    <path id="Path_907" data-name="Path 907" d="M214.145,280.913l-.313,2.814a.5.5,0,0,0,.493.551h1.984a.5.5,0,0,0,.493-.551l-.313-2.814a1.963,1.963,0,0,0,.812-1.6,1.984,1.984,0,1,0-3.969,0A1.963,1.963,0,0,0,214.145,280.913Zm1.172-2.588a.989.989,0,0,1,.428,1.882.5.5,0,0,0-.277.5l.287,2.578h-.876l.287-2.578a.5.5,0,0,0-.277-.5.989.989,0,0,1,.428-1.882Z" transform="translate(-206.388 -264.435)" fill="#fff"/>
    <path id="Path_908" data-name="Path 908" d="M81.363,8.929H79.875V6.945a6.945,6.945,0,1,0-13.89,0V8.929H64.5a.5.5,0,0,0-.5.5v12.4a1.986,1.986,0,0,0,1.984,1.984h13.89a1.986,1.986,0,0,0,1.984-1.984V9.426A.5.5,0,0,0,81.363,8.929ZM66.976,6.945a5.953,5.953,0,1,1,11.906,0V8.929H77.89V6.945a4.961,4.961,0,1,0-9.922,0V8.929h-.992Zm9.922,0V8.929H68.961V6.945a3.969,3.969,0,0,1,7.937,0Zm3.969,14.882a.993.993,0,0,1-.992.992H65.984a.993.993,0,0,1-.992-.992V9.922H80.867Z" transform="translate(-64)" fill="#fff"/>
  </g>
</svg>
