<svg xmlns="http://www.w3.org/2000/svg" width="270" height="55.699" viewBox="0 0 270 55.699">
  <g id="Group_42" data-name="Group 42" transform="translate(-391.04 -334.015)">
    <g id="Group_39" data-name="Group 39" transform="translate(391.04 334.882)">
      <g id="Group_37" data-name="Group 37" transform="translate(10.052)">
        <path id="Path_75" data-name="Path 75" d="M447.986,350.731v-10.4l-9-5.2-9,5.2v10.4l9,5.2Z" transform="translate(-409.901 -335.135)" fill="#fff"/>
        <path id="Path_76" data-name="Path 76" d="M422.039,350.731v-10.4l-9-5.2-9,5.2v10.4l9,5.2Z" transform="translate(-404.03 -335.135)" fill="#fff"/>
      </g>
      <path id="Path_77" data-name="Path 77" d="M409.048,372.583v-10.4l-9-5.2-9,5.2v10.4l9,5.2Z" transform="translate(-391.04 -340.079)" fill="#fff"/>
      <path id="Path_78" data-name="Path 78" d="M461.068,372.583v-10.4l-9-5.2-9,5.2v10.4l9,5.2Z" transform="translate(-402.809 -340.079)" fill="#fff"/>
      <path id="Path_79" data-name="Path 79" d="M435.013,372.726v-10.4l-9-5.2-9,5.2v10.4l9,5.2Z" transform="translate(-396.914 -340.111)" fill="#fff"/>
      <g id="Group_38" data-name="Group 38" transform="translate(9.734 34.037)">
        <path id="Path_80" data-name="Path 80" d="M448.4,394.721v-10.4l-9-5.2-9,5.2v10.4l9,5.2Z" transform="translate(-409.676 -379.125)" fill="#fff"/>
        <path id="Path_81" data-name="Path 81" d="M421.629,394.721v-10.4l-9-5.2-9,5.2v10.4l9,5.2Z" transform="translate(-403.62 -379.125)" fill="#fff"/>
      </g>
    </g>
    <g id="Group_40" data-name="Group 40" transform="translate(459.601 372.646)">
      <path id="Path_82" data-name="Path 82" d="M486.938,394.4h-4.3l-.712,2.058h-2.276l3.885-10.819h2.523l3.885,10.819h-2.29Zm-2.151-6.253-1.563,4.52h3.127Z" transform="translate(-479.648 -384.327)" fill="#fff"/>
      <path id="Path_83" data-name="Path 83" d="M499.4,397.083h-2.167v-8.575H499.4v1.332a2.974,2.974,0,0,1,2.632-1.455v2.275h-.573c-1.284,0-2.058.5-2.058,2.152Z" transform="translate(-483.626 -384.947)" fill="#fff"/>
      <path id="Path_84" data-name="Path 84" d="M507.849,389.7h-1.021v-1.78h1.021V385.8h2.183v2.12h1.92v1.78h-1.92v4.147c0,.573.232.821.913.821h1.007V396.5h-1.363c-1.64,0-2.74-.7-2.74-2.662Z" transform="translate(-485.797 -384.363)" fill="#fff"/>
      <path id="Path_85" data-name="Path 85" d="M517.568,385.212a1.333,1.333,0,1,1,1.332,1.27A1.272,1.272,0,0,1,517.568,385.212Zm.233,2.291h2.167v8.575H517.8Z" transform="translate(-488.227 -383.942)" fill="#fff"/>
      <path id="Path_86" data-name="Path 86" d="M525.843,389.314h-.975v-1.78h.975V387.1c0-2.1,1.192-3.08,3.607-3.018v1.826c-1.053-.031-1.409.31-1.409,1.27v.356h1.5v1.78h-1.5v6.794h-2.2Z" transform="translate(-489.879 -383.973)" fill="#fff"/>
      <path id="Path_87" data-name="Path 87" d="M534.828,385.212a1.333,1.333,0,1,1,1.332,1.27A1.271,1.271,0,0,1,534.828,385.212Zm.232,2.291h2.167v8.575H535.06Z" transform="translate(-492.132 -383.942)" fill="#fff"/>
      <path id="Path_88" data-name="Path 88" d="M546.609,388.364a3.825,3.825,0,0,1,4.04,3.033h-2.337a1.686,1.686,0,0,0-1.719-1.192c-1.207,0-2.012.914-2.012,2.585s.8,2.569,2.012,2.569a1.635,1.635,0,0,0,1.719-1.175h2.337a3.911,3.911,0,0,1-4.04,3.034,4.431,4.431,0,0,1,0-8.854Z" transform="translate(-493.838 -384.942)" fill="#fff"/>
      <path id="Path_89" data-name="Path 89" d="M557.228,385.212a1.332,1.332,0,1,1,1.331,1.27A1.271,1.271,0,0,1,557.228,385.212Zm.231,2.291h2.167v8.575h-2.167Z" transform="translate(-497.2 -383.942)" fill="#fff"/>
      <path id="Path_90" data-name="Path 90" d="M568.684,388.364a3.39,3.39,0,0,1,2.832,1.362V388.5H573.7v8.575h-2.183v-1.253a3.382,3.382,0,0,1-2.847,1.394c-2.167,0-3.9-1.78-3.9-4.458S566.5,388.364,568.684,388.364Zm.557,1.9a2.287,2.287,0,0,0-2.26,2.492,2.344,2.344,0,0,0,2.26,2.554,2.537,2.537,0,0,0,0-5.046Z" transform="translate(-498.906 -384.942)" fill="#fff"/>
      <path id="Path_91" data-name="Path 91" d="M581.447,384.823h2.167v11.454h-2.167Z" transform="translate(-502.679 -384.141)" fill="#fff"/>
      <path id="Path_92" data-name="Path 92" d="M596.268,385.212a1.332,1.332,0,1,1,1.331,1.27A1.271,1.271,0,0,1,596.268,385.212Zm.231,2.291h2.167v8.575H596.5Z" transform="translate(-506.032 -383.942)" fill="#fff"/>
      <path id="Path_93" data-name="Path 93" d="M610.532,392.346a1.929,1.929,0,1,0-3.839,0v4.736h-2.167v-8.575h2.167v1.068a3.2,3.2,0,0,1,2.585-1.192c2,0,3.421,1.3,3.421,3.668v5.03h-2.167Z" transform="translate(-507.901 -384.947)" fill="#fff"/>
      <path id="Path_94" data-name="Path 94" d="M620.288,389.7h-1.021v-1.78h1.021V385.8h2.182v2.12h1.92v1.78h-1.92v4.147c0,.573.233.821.914.821h1.006V396.5h-1.362c-1.641,0-2.74-.7-2.74-2.662Z" transform="translate(-511.236 -384.363)" fill="#fff"/>
      <path id="Path_95" data-name="Path 95" d="M633.889,397.218a4.429,4.429,0,0,1,0-8.854,4.025,4.025,0,0,1,4.226,4.241,5.068,5.068,0,0,1-.062.836h-6.268a2.005,2.005,0,0,0,2.058,1.981,1.768,1.768,0,0,0,1.719-1.036H637.9A3.985,3.985,0,0,1,633.889,397.218Zm-2.09-5.232h4.072a1.906,1.906,0,0,0-2.044-1.842A1.992,1.992,0,0,0,631.8,391.986Z" transform="translate(-513.57 -384.942)" fill="#fff"/>
      <path id="Path_96" data-name="Path 96" d="M645.046,384.823h2.167v11.454h-2.167Z" transform="translate(-517.068 -384.141)" fill="#fff"/>
      <path id="Path_97" data-name="Path 97" d="M653.006,384.823h2.167v11.454h-2.167Z" transform="translate(-518.869 -384.141)" fill="#fff"/>
      <path id="Path_98" data-name="Path 98" d="M660.665,385.212a1.332,1.332,0,1,1,1.332,1.27A1.272,1.272,0,0,1,660.665,385.212Zm.232,2.291h2.167v8.575H660.9Z" transform="translate(-520.602 -383.942)" fill="#fff"/>
      <path id="Path_99" data-name="Path 99" d="M672.122,388.364a3.354,3.354,0,0,1,2.832,1.362V388.5h2.182v8.637a3.918,3.918,0,0,1-4.24,4.164c-2.415,0-4.1-1.207-4.318-3.173h2.151a2.215,2.215,0,0,0,4.226-.99v-1.331a3.382,3.382,0,0,1-2.832,1.409c-2.184,0-3.917-1.78-3.917-4.458S669.938,388.364,672.122,388.364Zm.556,1.9a2.287,2.287,0,0,0-2.26,2.492,2.344,2.344,0,0,0,2.26,2.554,2.537,2.537,0,0,0,0-5.046Z" transform="translate(-522.308 -384.942)" fill="#fff"/>
      <path id="Path_100" data-name="Path 100" d="M688.468,397.218a4.429,4.429,0,0,1,0-8.854,4.026,4.026,0,0,1,4.225,4.241,5.069,5.069,0,0,1-.063.836h-6.268a2.006,2.006,0,0,0,2.058,1.981,1.768,1.768,0,0,0,1.719-1.036h2.337A3.985,3.985,0,0,1,688.468,397.218Zm-2.091-5.232h4.072a1.905,1.905,0,0,0-2.043-1.842A1.992,1.992,0,0,0,686.377,391.986Z" transform="translate(-525.918 -384.942)" fill="#fff"/>
      <path id="Path_101" data-name="Path 101" d="M705.63,392.346a1.929,1.929,0,1,0-3.839,0v4.736h-2.167v-8.575h2.167v1.068a3.2,3.2,0,0,1,2.585-1.192c2,0,3.421,1.3,3.421,3.668v5.03H705.63Z" transform="translate(-529.416 -384.947)" fill="#fff"/>
      <path id="Path_102" data-name="Path 102" d="M718.766,388.364a3.825,3.825,0,0,1,4.04,3.033h-2.338a1.685,1.685,0,0,0-1.719-1.192c-1.207,0-2.012.914-2.012,2.585s.8,2.569,2.012,2.569a1.635,1.635,0,0,0,1.719-1.175h2.338a3.911,3.911,0,0,1-4.04,3.034,4.431,4.431,0,0,1,0-8.854Z" transform="translate(-532.787 -384.942)" fill="#fff"/>
      <path id="Path_103" data-name="Path 103" d="M733.267,397.218a4.429,4.429,0,0,1,0-8.854,4.025,4.025,0,0,1,4.225,4.241,5.055,5.055,0,0,1-.062.836h-6.268a2,2,0,0,0,2.058,1.981,1.768,1.768,0,0,0,1.719-1.036h2.337A3.985,3.985,0,0,1,733.267,397.218Zm-2.09-5.232h4.072a1.906,1.906,0,0,0-2.043-1.842A1.992,1.992,0,0,0,731.177,391.986Z" transform="translate(-536.054 -384.942)" fill="#fff"/>
    </g>
    <g id="Group_41" data-name="Group 41" transform="translate(459.199 334.015)">
      <path id="Path_104" data-name="Path 104" d="M487.7,349.46H484.42v7.8h-5.291V335.535H487.7c5.323,0,7.984,3,7.984,6.994C495.684,346.118,493.239,349.46,487.7,349.46Zm-.4-4.208c2.1,0,3-1.052,3-2.723s-.9-2.724-3-2.724H484.42v5.447Z" transform="translate(-479.129 -334.359)" fill="#fff"/>
      <path id="Path_105" data-name="Path 105" d="M509.968,334.015h5.292v22.9h-5.292Z" transform="translate(-486.106 -334.015)" fill="#fff"/>
      <path id="Path_106" data-name="Path 106" d="M544.654,358.561h-5.292V356.21a6.292,6.292,0,0,1-5.231,2.537c-3.992,0-6.684-2.754-6.684-7.365V341.294h5.261v9.376c0,2.352,1.331,3.651,3.311,3.651,2.042,0,3.343-1.3,3.343-3.651v-9.376h5.292Z" transform="translate(-490.061 -335.662)" fill="#fff"/>
      <path id="Path_107" data-name="Path 107" d="M566.74,340.974a5.982,5.982,0,0,1,5.323,2.693v-2.445h5.292v17.236c0,4.611-2.662,8.541-8.634,8.541-5.137,0-8.479-2.6-8.943-6.715h5.23c.34,1.3,1.64,2.135,3.466,2.135,2.011,0,3.589-1.052,3.589-3.961v-2.444a6.106,6.106,0,0,1-5.323,2.723c-4.239,0-7.612-3.466-7.612-8.912S562.5,340.974,566.74,340.974Zm1.547,4.611c-1.981,0-3.775,1.486-3.775,4.239s1.794,4.3,3.775,4.3c2.012,0,3.775-1.516,3.775-4.27S570.3,345.585,568.288,345.585Z" transform="translate(-497.228 -335.589)" fill="#fff"/>
      <path id="Path_108" data-name="Path 108" d="M615.566,357.384c-4.673,0-8.324-2.321-8.479-6.715h5.631a2.491,2.491,0,0,0,2.693,2.475c1.547,0,2.538-.773,2.538-2.043,0-4.022-10.862-1.856-10.8-9.561,0-4.116,3.374-6.406,7.922-6.406,4.735,0,7.922,2.352,8.139,6.5h-5.725a2.352,2.352,0,0,0-2.507-2.259,1.926,1.926,0,0,0-2.228,1.981c0,3.775,10.738,2.074,10.738,9.345C623.488,354.352,620.641,357.384,615.566,357.384Z" transform="translate(-508.079 -334.268)" fill="#fff"/>
      <path id="Path_109" data-name="Path 109" d="M644.619,340.974a6.011,6.011,0,0,1,5.323,2.693v-2.445h5.292v17.267h-5.292v-2.444a6.1,6.1,0,0,1-5.354,2.692c-4.208,0-7.581-3.466-7.581-8.912S640.38,340.974,644.619,340.974Zm1.548,4.611c-1.981,0-3.775,1.486-3.775,4.239s1.794,4.3,3.775,4.3c2.012,0,3.775-1.516,3.775-4.27S648.179,345.585,646.167,345.585Z" transform="translate(-514.848 -335.589)" fill="#fff"/>
      <path id="Path_110" data-name="Path 110" d="M677.658,340.974a6.011,6.011,0,0,1,5.323,2.693v-2.445h5.292v17.267h-5.292v-2.444a6.1,6.1,0,0,1-5.354,2.692c-4.208,0-7.581-3.466-7.581-8.912S673.419,340.974,677.658,340.974Zm1.548,4.611c-1.981,0-3.775,1.486-3.775,4.239s1.794,4.3,3.775,4.3c2.012,0,3.775-1.516,3.775-4.27S681.218,345.585,679.206,345.585Z" transform="translate(-522.323 -335.589)" fill="#fff"/>
      <path id="Path_111" data-name="Path 111" d="M711.2,358.736c-4.611,0-7.705-2.568-7.953-5.91h5.231a2.423,2.423,0,0,0,2.662,2.011c1.36,0,2.072-.619,2.072-1.393,0-2.785-9.407-.773-9.407-7.117,0-2.94,2.506-5.354,7.024-5.354,4.456,0,6.932,2.476,7.273,5.88h-4.89a2.275,2.275,0,0,0-2.537-1.95c-1.238,0-1.919.5-1.919,1.331,0,2.755,9.346.8,9.439,7.241C718.191,356.478,715.53,358.736,711.2,358.736Z" transform="translate(-529.833 -335.589)" fill="#fff"/>
    </g>
  </g>
</svg>
