<svg xmlns="http://www.w3.org/2000/svg" xmlns:xlink="http://www.w3.org/1999/xlink" width="67.166" height="65" viewBox="0 0 67.166 65">
  <defs>
    <linearGradient id="linear-gradient" x1="0.5" x2="0.5" y2="1" gradientUnits="objectBoundingBox">
      <stop offset="0" stop-color="#391168"/>
      <stop offset="1" stop-color="#c471ed"/>
    </linearGradient>
  </defs>
  <g id="surface1" transform="translate(0 -0.125)">
    <path id="Path_646" data-name="Path 646" d="M5.417,58.625H33.583V56.458H5.417a3.25,3.25,0,0,1-3.25-3.25V5.542a3.25,3.25,0,0,1,3.25-3.25H53.083a3.249,3.249,0,0,1,3.25,3.25V30.458H58.5V5.542A5.423,5.423,0,0,0,53.083.125H5.417A5.423,5.423,0,0,0,0,5.542V53.208A5.424,5.424,0,0,0,5.417,58.625Zm0,0" fill="url(#linear-gradient)"/>
    <path id="Path_647" data-name="Path 647" d="M62.344,62.469H64.51v2.166H62.344Zm0,0" transform="translate(-58.01 -58.01)" fill="url(#linear-gradient)"/>
    <path id="Path_648" data-name="Path 648" d="M124.676,62.469h2.167v2.166h-2.167Zm0,0" transform="translate(-116.009 -58.01)" fill="url(#linear-gradient)"/>
    <path id="Path_649" data-name="Path 649" d="M187.016,62.469h2.167v2.166h-2.167Zm0,0" transform="translate(-174.016 -58.01)" fill="url(#linear-gradient)"/>
    <path id="Path_650" data-name="Path 650" d="M62.344,124.8h49.833v2.167H62.344Zm0,0" transform="translate(-58.01 -116.009)" fill="url(#linear-gradient)"/>
    <path id="Path_651" data-name="Path 651" d="M73.057,191.707l-2.752,2.752a5.433,5.433,0,1,0,1.532,1.532l2.751-2.752Zm-5.734,10.516a3.25,3.25,0,1,1,0-6.5,3.193,3.193,0,0,1,1.392.324l-2.158,2.158,1.531,1.532,2.16-2.157a3.19,3.19,0,0,1,.325,1.392A3.25,3.25,0,0,1,67.322,202.223Zm0,0" transform="translate(-57.573 -178.265)" fill="url(#linear-gradient)"/>
    <path id="Path_652" data-name="Path 652" d="M264.941,249.484h18.416v2.166H264.941Zm0,0" transform="translate(-246.524 -232.025)" fill="url(#linear-gradient)"/>
    <path id="Path_653" data-name="Path 653" d="M264.941,311.82h7.583v2.166h-7.583Zm0,0" transform="translate(-246.524 -290.028)" fill="url(#linear-gradient)"/>
    <path id="Path_654" data-name="Path 654" d="M405.2,311.82h15.166v2.166H405.2Zm0,0" transform="translate(-377.036 -290.028)" fill="url(#linear-gradient)"/>
    <path id="Path_655" data-name="Path 655" d="M561.047,249.484H571.88v2.166H561.047Zm0,0" transform="translate(-522.047 -232.025)" fill="url(#linear-gradient)"/>
    <path id="Path_656" data-name="Path 656" d="M73.057,378.723l-2.752,2.752a5.433,5.433,0,1,0,1.532,1.532l2.751-2.752Zm-5.734,10.516a3.25,3.25,0,0,1,0-6.5,3.2,3.2,0,0,1,1.392.325l-2.158,2.159,1.531,1.531,2.16-2.157a3.192,3.192,0,0,1,.325,1.392A3.25,3.25,0,0,1,67.322,389.239Zm0,0" transform="translate(-57.573 -352.281)" fill="url(#linear-gradient)"/>
    <path id="Path_657" data-name="Path 657" d="M264.941,436.492h18.416v2.167H264.941Zm0,0" transform="translate(-246.524 -406.034)" fill="url(#linear-gradient)"/>
    <path id="Path_658" data-name="Path 658" d="M264.941,498.836h7.583V501h-7.583Zm0,0" transform="translate(-246.524 -464.044)" fill="url(#linear-gradient)"/>
    <path id="Path_659" data-name="Path 659" d="M405.2,498.836h8.666V501H405.2Zm0,0" transform="translate(-377.036 -464.044)" fill="url(#linear-gradient)"/>
    <path id="Path_660" data-name="Path 660" d="M561.047,436.492h4.333v2.167h-4.333Zm0,0" transform="translate(-522.047 -406.034)" fill="url(#linear-gradient)"/>
    <path id="Path_661" data-name="Path 661" d="M73.057,565.738l-2.752,2.752a5.433,5.433,0,1,0,1.532,1.532l2.751-2.751Zm-5.734,10.516a3.25,3.25,0,0,1,0-6.5,3.188,3.188,0,0,1,1.392.325l-2.158,2.159,1.531,1.531,2.16-2.157A3.193,3.193,0,0,1,70.573,573,3.25,3.25,0,0,1,67.322,576.254Zm0,0" transform="translate(-57.573 -526.296)" fill="url(#linear-gradient)"/>
    <path id="Path_662" data-name="Path 662" d="M264.941,623.512h14.083v2.167H264.941Zm0,0" transform="translate(-246.524 -580.054)" fill="url(#linear-gradient)"/>
    <path id="Path_663" data-name="Path 663" d="M264.941,685.852h7.583v2.167h-7.583Zm0,0" transform="translate(-246.524 -638.06)" fill="url(#linear-gradient)"/>
    <path id="Path_664" data-name="Path 664" d="M405.2,685.852h4.333v2.167H405.2Zm0,0" transform="translate(-377.036 -638.06)" fill="url(#linear-gradient)"/>
    <path id="Path_665" data-name="Path 665" d="M514.961,500.164a16.25,16.25,0,1,0-16.25-16.25A16.25,16.25,0,0,0,514.961,500.164Zm0-30.333a14.083,14.083,0,1,1-14.084,14.083A14.084,14.084,0,0,1,514.961,469.831Zm0,0" transform="translate(-464.044 -435.039)" fill="url(#linear-gradient)"/>
    <path id="Path_666" data-name="Path 666" d="M611.459,590.272l-1.939.968,2.167,4.333a1.083,1.083,0,0,0,.8.585,1.206,1.206,0,0,0,.168.014,1.086,1.086,0,0,0,.766-.317l13-13-1.531-1.532-11.938,11.937Zm0,0" transform="translate(-567.151 -540.798)" fill="url(#linear-gradient)"/>
  </g>
</svg>
