<svg xmlns="http://www.w3.org/2000/svg" width="27.751" height="19.93" viewBox="0 0 27.751 19.93">
  <g id="pro" transform="translate(0 -72)">
    <rect id="Rectangle_57" data-name="Rectangle 57" width="1.213" height="1.213" transform="translate(6.295 88.977)" fill="#fff"/>
    <path id="Path_904" data-name="Path 904" d="M16.944,250.607h-3.1v-1.358A1.232,1.232,0,0,0,12.6,248H11.3v2.384l-.6.657H9.5v-.869H0v.815H8.689v6.571H0v.815H9.5v-1.738h.755L12,258.373h6.2v-6.517A1.232,1.232,0,0,0,16.944,250.607Zm.434,6.951H12.333L10.6,255.82H9.5v-3.964H11.03l1.08-1.135v-1.906H12.6a.417.417,0,0,1,.434.434v2.172h3.91a.417.417,0,0,1,.434.434Z" transform="translate(0 -166.442)" fill="#fff"/>
    <path id="Path_905" data-name="Path 905" d="M272,72v9.5h1.3v1.738h1.038l1.738-1.738h8.9V72Zm12.165,8.689h-8.423l-1.623,1.569V80.689h-1.3V72.815h11.35Z" transform="translate(-257.229)" fill="#fff"/>
    <path id="Path_906" data-name="Path 906" d="M325.063,102.273l-1.879-1.879L320.577,103l-1.3-1.3-1.879,1.879,3.183,3.183Zm-5.789.576,1.3,1.3,2.607-2.607.727.727-3.334,3.334-2.031-2.031Z" transform="translate(-300.157 -26.852)" fill="#fff"/>
  </g>
</svg>
