<svg xmlns="http://www.w3.org/2000/svg" width="116" height="100" viewBox="0 0 116 100">
  <path id="reliability" d="M114.095,47.311a6.74,6.74,0,0,0-3.205-1.874,6.783,6.783,0,0,0,1.028-3.865A6.927,6.927,0,0,0,105,35H91.545l-.013-20.227a7.93,7.93,0,1,0-15.859,0v5.353a9.686,9.686,0,0,1-.822,3.909A18.743,18.743,0,0,1,56.867,5.3V2.841A2.839,2.839,0,0,0,54.035,0H24.809a2.839,2.839,0,0,0-2.832,2.841V4.773A18.742,18.742,0,0,1,3.285,23.523H2.832A2.839,2.839,0,0,0,0,26.364V60.455A39.407,39.407,0,0,0,75.215,77.045H98.9a5.841,5.841,0,0,0,4.147-1.752,5.6,5.6,0,0,0,1.143-6.2H105a6.927,6.927,0,0,0,6.915-6.571,6.778,6.778,0,0,0-1.046-3.893A6.9,6.9,0,0,0,116,52.292a6.779,6.779,0,0,0-1.9-4.981ZM39.422,96.591A36.121,36.121,0,0,1,3.4,60.455V26.932A22.151,22.151,0,0,0,25.375,4.773V3.409H53.469V5.3A22.169,22.169,0,0,0,72.538,27.254a9.712,9.712,0,0,1-1.326,1.021L61.93,34.2a5.071,5.071,0,0,1-2.736.8H57.1a5.108,5.108,0,0,0-4.88-3.636H42.707A5.107,5.107,0,0,0,37.9,34.773H29.567A4.43,4.43,0,0,0,25.149,39.2V68.523a4.429,4.429,0,0,0,4.418,4.432H37.61V89.724A29.2,29.2,0,0,1,10.2,60.568V32.325A23.257,23.257,0,0,0,31.661,10.114H37.61v15a1.7,1.7,0,1,0,3.4,0V8.409a1.7,1.7,0,0,0-1.7-1.7H29.982a1.7,1.7,0,0,0-1.7,1.7v.72A19.839,19.839,0,0,1,8.5,28.977a1.7,1.7,0,0,0-1.7,1.7V60.568A32.6,32.6,0,0,0,39.309,93.182a1.7,1.7,0,0,0,1.7-1.7V76.189a4.623,4.623,0,0,0,1.246.175h9.969A5.086,5.086,0,0,0,56.3,74.315l1.812,1.03a13.018,13.018,0,0,0,6.424,1.7h6.9A35.987,35.987,0,0,1,39.422,96.591ZM37.61,69.545H29.567a1.023,1.023,0,0,1-1.02-1.023V39.2a1.023,1.023,0,0,1,1.02-1.023H37.61Zm71.472-14.091H95.836a1.7,1.7,0,0,0,0,3.409h9.289a3.4,3.4,0,0,1,3.4,3.535A3.5,3.5,0,0,1,105,65.682h-6c-.038,0-.076,0-.113.005s-.075-.005-.113-.005H95.836a1.7,1.7,0,0,0,0,3.409h2.945c.038,0,.076,0,.113-.005s.075.005.113.005a2.28,2.28,0,0,1,2.266,2.229,2.206,2.206,0,0,1-.648,1.586,2.428,2.428,0,0,1-1.721.731H64.537a9.619,9.619,0,0,1-4.748-1.256l-2.468-1.4V67.121a1.7,1.7,0,1,0-3.4,0V71.25a1.7,1.7,0,0,1-1.7,1.7H42.254a1.25,1.25,0,0,1-1.246-1.25V36.477a1.7,1.7,0,0,1,1.7-1.7h9.516a1.7,1.7,0,0,1,1.7,1.7V59.166a1.7,1.7,0,1,0,3.4,0V38.409h1.873a8.459,8.459,0,0,0,4.56-1.333l9.284-5.926a13.015,13.015,0,0,0,6.033-11.025V14.773a4.531,4.531,0,1,1,9.062,0l.013,20.8a2.84,2.84,0,0,0,2.832,2.839H105a3.5,3.5,0,0,1,3.518,3.283,3.4,3.4,0,0,1-3.4,3.535H95.836a1.7,1.7,0,0,0,0,3.409H109.2a3.4,3.4,0,0,1,3.4,3.535,3.5,3.5,0,0,1-3.518,3.283Zm0,0" transform="translate(0)" fill="#fff"/>
</svg>
