<svg xmlns="http://www.w3.org/2000/svg" width="98" height="100" viewBox="0 0 98 100">
  <g id="rethink" transform="translate(-1 -0.233)">
    <path id="Path_1113" data-name="Path 1113" d="M64.311,65.051a12.648,12.648,0,0,0-10.142-12.37l-4.228-.845a3.168,3.168,0,0,1-2.366-2.072l-.257-.752a11.094,11.094,0,0,0,3.294-4.048h1.082A6.314,6.314,0,0,0,58,38.655a6.247,6.247,0,0,0-1.284-3.774l.576-1.732A13.788,13.788,0,0,0,44.215,15H40.034a12.175,12.175,0,0,0-9.792,4.92l-1.15.289a7.624,7.624,0,0,0-5.785,7.407,26.35,26.35,0,0,0,1.374,7.157,6.246,6.246,0,0,0-1.374,3.883,6.314,6.314,0,0,0,6.308,6.308H30.7a11.094,11.094,0,0,0,3.294,4.048l-.257.752a3.162,3.162,0,0,1-2.366,2.072l-4.228.845A12.649,12.649,0,0,0,17,65.051v6.721H64.311ZM51.694,41.809h-.126a11.08,11.08,0,0,0,.126-1.577V35.5a3.154,3.154,0,0,1,0,6.308Zm-22.078,0a3.154,3.154,0,0,1,0-6.308v4.731a11.08,11.08,0,0,0,.126,1.577Zm.226-9.462h-.226a6.234,6.234,0,0,0-2.243.431,20.631,20.631,0,0,1-.912-5.162,4.479,4.479,0,0,1,3.394-4.349l2.31-.577.339-.506a9.027,9.027,0,0,1,7.527-4.029h4.181a10.631,10.631,0,0,1,10.088,14l-.224.67a6.272,6.272,0,0,0-2.383-.475H51.4a4.725,4.725,0,0,0-4.441-3.154H40.655a1.577,1.577,0,0,1,0-3.154h1.577V22.885H40.655A4.744,4.744,0,0,0,36.1,26.34l-.508.128A7.858,7.858,0,0,0,29.842,32.347Zm2.929,7.885V34.118a4.726,4.726,0,0,1,3.561-4.584,4.733,4.733,0,0,0,4.324,2.813h6.308a1.578,1.578,0,0,1,1.577,1.577v6.308a7.885,7.885,0,0,1-15.77,0Zm7.885,11.039a10.937,10.937,0,0,0,3.861-.711l.076.222a6.285,6.285,0,0,0,1.285,2.176l-5.222,4.179-5.222-4.179a6.285,6.285,0,0,0,1.285-2.176l.076-.222a10.937,10.937,0,0,0,3.861.711Zm7.056,4.261-1.634,5.718-2.847-2.135Zm-9.629,3.585-2.847,2.135L33.6,55.534Zm23.075,9.5h-41V65.051a9.486,9.486,0,0,1,7.606-9.278l2.485-.5,3.214,11.247,7.164-5.373.032.024.032-.025,7.164,5.373,3.214-11.247,2.485.5a9.491,9.491,0,0,1,7.606,9.279Z" transform="translate(9.345 8.417)" fill="#fff"/>
    <path id="Path_1114" data-name="Path 1114" d="M8.885,23A7.894,7.894,0,0,0,1,30.885v41.29L5.277,83.581h0a3.853,3.853,0,0,0,7.215,0L16.77,72.175V30.885A7.894,7.894,0,0,0,8.885,23Zm0,3.154a4.737,4.737,0,0,1,4.731,4.731v1.577H4.154V30.885A4.737,4.737,0,0,1,8.885,26.154ZM4.853,73.465h8.065l-1.183,3.154h-5.7Zm-.7-3.154V41.924H7.308V70.311Zm6.308,0V41.924h3.154V70.311ZM4.154,38.77V35.616h9.462V38.77Zm4.075,43.7-1.012-2.7h3.335l-1.012,2.7A.731.731,0,0,1,8.229,82.473Z" transform="translate(0 12.943)" fill="#fff"/>
    <path id="Path_1115" data-name="Path 1115" d="M50.462,37.522V43.58a7.885,7.885,0,1,0,15.77,0V37.522c.579-2.149,2.031-3.936,3.72-5.993,2.69-3.275,5.742-6.988,5.742-13.182a17.347,17.347,0,0,0-34.694,0c0,6.195,3.052,9.907,5.742,13.182C48.431,33.586,49.883,35.373,50.462,37.522Zm3.154-17.6H52.039a1.577,1.577,0,1,1,1.577-1.577Zm6.308,15.77H56.77V23.078h3.154Zm3.154,3.154V42H53.616V38.848Zm-4.731,9.462a4.725,4.725,0,0,1-4.441-3.154h8.88A4.721,4.721,0,0,1,58.347,48.311Zm0-44.157A14.208,14.208,0,0,1,72.54,18.347c0,5.064-2.555,8.174-5.026,11.181a22.386,22.386,0,0,0-4.01,6.166h-.426V23.078h1.577a4.731,4.731,0,1,0-4.731-4.731v1.577H56.77V18.347a4.731,4.731,0,1,0-4.731,4.731h1.577V35.694H53.19a22.363,22.363,0,0,0-4.01-6.166c-2.471-3.007-5.026-6.117-5.026-11.181A14.208,14.208,0,0,1,58.347,4.154Zm4.731,15.77V18.347a1.577,1.577,0,1,1,1.577,1.577Z" transform="translate(23.306 0.443)" fill="#fff"/>
    <path id="Path_1116" data-name="Path 1116" d="M37.583,71.3V65.4L25.057,72.911l12.526,7.518V74.452a44.066,44.066,0,0,0,42.31-39.216l-3.135-.345A40.919,40.919,0,0,1,37.583,71.3Zm-3.154,3.558-3.244-1.944,3.244-1.944Z" transform="translate(14.106 19.804)" fill="#fff"/>
    <path id="Path_1117" data-name="Path 1117" d="M45.182,15.268,57.708,7.751,45.182.233v6A44.22,44.22,0,0,0,6.422,32.34L9.3,33.626a41.056,41.056,0,0,1,35.88-24.24Zm3.154-9.462L51.58,7.751,48.336,9.7Z" transform="translate(3.129 0)" fill="#fff"/>
  </g>
</svg>
