<svg id="Group_268" data-name="Group 268" xmlns="http://www.w3.org/2000/svg" width="20.84" height="22.754" viewBox="0 0 20.84 22.754">
  <path id="Path_909" data-name="Path 909" d="M36.4,9.406h-.056V8.026a8.026,8.026,0,0,0-16.052,0v1.38h-.338a2.294,2.294,0,0,0-2.2,2.366v3.52a2.225,2.225,0,0,0,2.168,2.281h2.113a.535.535,0,0,0,.509-.56c0-.011,0-.021,0-.032v-6.9c0-.338-.2-.676-.507-.676h-.62V8.026a6.9,6.9,0,1,1,13.8,0v1.38H34.6c-.31,0-.507.338-.507.676v6.9a.535.535,0,0,0,.475.589l.032,0h.648l-.056.084a4.449,4.449,0,0,1-3.577,1.774,2.788,2.788,0,0,0-5.52.535,2.816,2.816,0,0,0,2.816,2.788,2.9,2.9,0,0,0,2.028-.873,2.478,2.478,0,0,0,.676-1.352A5.576,5.576,0,0,0,36.09,18.3l.535-.789A1.917,1.917,0,0,0,38.6,15.573v-3.52C38.6,10.842,37.7,9.406,36.4,9.406Zm-14.982,7.04H19.954a1.1,1.1,0,0,1-1.071-1.125c0-.01,0-.02,0-.03v-3.52a1.168,1.168,0,0,1,1.07-1.239h1.464Zm8.7,4.647a1.662,1.662,0,0,1-1.211.535,1.718,1.718,0,0,1-1.69-1.662,1.662,1.662,0,0,1,3.323,0h0A1.493,1.493,0,0,1,30.12,21.093Zm7.35-5.52c0,.76-.732.873-1.07.873H35.217V10.532H36.4c.62,0,1.07.873,1.07,1.521Z" transform="translate(-17.756)" fill="#fff"/>
</svg>
