<svg id="surface1" xmlns="http://www.w3.org/2000/svg" xmlns:xlink="http://www.w3.org/1999/xlink" width="49.996" height="49.996" viewBox="0 0 49.996 49.996">
  <defs>
    <linearGradient id="linear-gradient" x1="0.5" x2="0.5" y2="1" gradientUnits="objectBoundingBox">
      <stop offset="0" stop-color="#391168"/>
      <stop offset="1" stop-color="#c471ed"/>
    </linearGradient>
  </defs>
  <path id="Path_124" data-name="Path 124" d="M48.532,3.608H42.116q.035-1.066.036-2.144A1.465,1.465,0,0,0,40.687,0H9.309A1.465,1.465,0,0,0,7.845,1.465q0,1.077.036,2.144H1.465A1.465,1.465,0,0,0,0,5.073,31.747,31.747,0,0,0,4.83,22.509c3.079,4.627,7.179,7.281,11.609,7.54a15.042,15.042,0,0,0,3.172,2.664v6.51H17.154a5.393,5.393,0,0,0-5.387,5.387v2.457h-.1a1.465,1.465,0,0,0,0,2.929H38.334a1.465,1.465,0,0,0,0-2.929h-.1V44.609a5.393,5.393,0,0,0-5.387-5.387H30.385v-6.51a15.04,15.04,0,0,0,3.172-2.664c4.43-.258,8.531-2.912,11.61-7.54A31.746,31.746,0,0,0,50,5.073,1.465,1.465,0,0,0,48.532,3.608ZM7.269,20.886A28.23,28.23,0,0,1,2.96,6.538H8.044a48.948,48.948,0,0,0,4.55,17.769q.586,1.172,1.223,2.214A14.126,14.126,0,0,1,7.269,20.886Zm35.459,0a14.127,14.127,0,0,1-6.549,5.635q.636-1.043,1.223-2.214a48.956,48.956,0,0,0,4.55-17.769h5.084A28.231,28.231,0,0,1,42.728,20.886Zm0,0" fill="url(#linear-gradient)"/>
</svg>
