<svg xmlns="http://www.w3.org/2000/svg" xmlns:xlink="http://www.w3.org/1999/xlink" width="74.496" height="79.634" viewBox="0 0 74.496 79.634">
  <defs>
    <linearGradient id="linear-gradient" x1="0.5" x2="0.5" y2="1" gradientUnits="objectBoundingBox">
      <stop offset="0" stop-color="#391168"/>
      <stop offset="1" stop-color="#c471ed"/>
    </linearGradient>
  </defs>
  <g id="crypto" transform="translate(-3 -1)">
    <path id="Path_670" data-name="Path 670" d="M42.311,38.817a48.852,48.852,0,0,1,0-11.162C36.575,28.848,33,31.124,33,33.236S36.575,37.623,42.311,38.817Z" transform="translate(8.532 7.581)" fill="url(#linear-gradient)"/>
    <path id="Path_671" data-name="Path 671" d="M45.813,48.148a24.024,24.024,0,0,1-3.273-8.977A23.994,23.994,0,0,1,33.564,35.9,18.032,18.032,0,0,0,45.813,48.148Z" transform="translate(8.693 9.926)" fill="url(#linear-gradient)"/>
    <path id="Path_672" data-name="Path 672" d="M53.818,27.309C52.624,21.575,50.348,18,48.236,18s-4.388,3.575-5.582,9.309a49.07,49.07,0,0,1,11.164,0Z" transform="translate(11.278 4.835)" fill="url(#linear-gradient)"/>
    <path id="Path_673" data-name="Path 673" d="M63.062,33.236c0-2.112-3.575-4.388-9.311-5.581a48.852,48.852,0,0,1,0,11.162C59.487,37.623,63.062,35.347,63.062,33.236Z" transform="translate(14.434 7.581)" fill="url(#linear-gradient)"/>
    <path id="Path_674" data-name="Path 674" d="M54.45,39.45a46.259,46.259,0,0,0,0-12.054,46.12,46.12,0,0,0-12.056,0,46.259,46.259,0,0,0,0,12.054,45.552,45.552,0,0,0,6.028.394A45.552,45.552,0,0,0,54.45,39.45Z" transform="translate(11.092 7.395)" fill="url(#linear-gradient)"/>
    <path id="Path_675" data-name="Path 675" d="M63.148,30.812A18.037,18.037,0,0,0,50.9,18.563a24.024,24.024,0,0,1,3.273,8.977A24.038,24.038,0,0,1,63.148,30.812Z" transform="translate(13.623 4.995)" fill="url(#linear-gradient)"/>
    <path id="Path_676" data-name="Path 676" d="M33.564,30.812a24.047,24.047,0,0,1,8.977-3.273,23.994,23.994,0,0,1,3.273-8.977A18.037,18.037,0,0,0,33.564,30.812Z" transform="translate(8.693 4.995)" fill="url(#linear-gradient)"/>
    <path id="Path_677" data-name="Path 677" d="M21.422,35.569A2.571,2.571,0,0,0,18.853,33H15v5.138h3.853A2.571,2.571,0,0,0,21.422,35.569Z" transform="translate(3.413 9.101)" fill="url(#linear-gradient)"/>
    <path id="Path_678" data-name="Path 678" d="M38.964,35.982A17.982,17.982,0,1,0,20.982,53.964,18,18,0,0,0,38.964,35.982Zm-5.138,0h2.569A15.43,15.43,0,0,1,20.982,51.395V48.826A12.859,12.859,0,0,0,33.826,35.982Zm-25.688,0H5.569A15.43,15.43,0,0,1,20.982,20.569v2.569A12.859,12.859,0,0,0,8.138,35.982ZM19.7,47.542H17.129V44.973H14.56V42.4h1.284V29.56H14.56V26.991h2.569V24.422H19.7v2.569h1.284V24.422h2.569v2.751a5.1,5.1,0,0,1,2.078,8.809,5.1,5.1,0,0,1-2.078,8.809v2.751H20.982V44.973H19.7Z" transform="translate(0 4.835)" fill="url(#linear-gradient)"/>
    <path id="Path_679" data-name="Path 679" d="M48.236,39.071a48.82,48.82,0,0,1-5.581-.32c1.193,5.736,3.469,9.311,5.581,9.311s4.388-3.575,5.581-9.311A48.82,48.82,0,0,1,48.236,39.071Z" transform="translate(11.278 10.737)" fill="url(#linear-gradient)"/>
    <path id="Path_680" data-name="Path 680" d="M21.422,29.569A2.571,2.571,0,0,0,18.853,27H15v5.138h3.853A2.571,2.571,0,0,0,21.422,29.569Z" transform="translate(3.413 7.395)" fill="url(#linear-gradient)"/>
    <path id="Path_681" data-name="Path 681" d="M50.9,48.148A18.037,18.037,0,0,0,63.148,35.9a24.024,24.024,0,0,1-8.977,3.273A23.994,23.994,0,0,1,50.9,48.148Z" transform="translate(13.623 9.926)" fill="url(#linear-gradient)"/>
    <path id="Path_682" data-name="Path 682" d="M35.7,3.569a14.151,14.151,0,0,1,13.822,11.21l-4.028-3.223-1.606,2.006L50.308,18.7a1.286,1.286,0,0,0,1.806-.2l5.138-6.422-2.006-1.6-3.174,3.968A16.7,16.7,0,0,0,19,17.7h2.569A14.145,14.145,0,0,1,35.7,3.569Z" transform="translate(4.551 0)" fill="url(#linear-gradient)"/>
    <path id="Path_683" data-name="Path 683" d="M36.773,64.413A14.15,14.15,0,0,1,22.951,53.2l4.028,3.224,1.606-2.006-6.422-5.138a1.288,1.288,0,0,0-1.806.2L15.219,55.9l2.006,1.606L20.4,53.542A16.7,16.7,0,0,0,53.47,50.284H50.9A14.145,14.145,0,0,1,36.773,64.413Z" transform="translate(3.475 13.652)" fill="url(#linear-gradient)"/>
  </g>
</svg>
