<svg xmlns="http://www.w3.org/2000/svg" xmlns:xlink="http://www.w3.org/1999/xlink" width="570" height="293.358" viewBox="0 0 570 293.358">
  <defs>
    <linearGradient id="linear-gradient" x1="0.5" x2="0.5" y2="1" gradientUnits="objectBoundingBox">
      <stop offset="0" stop-color="#391168"/>
      <stop offset="1" stop-color="#c471ed"/>
    </linearGradient>
    <clipPath id="clip-path">
      <path id="Path_929" data-name="Path 929" d="M439.585,358.471c-2.856-4.943-5.747-9.972-7.041-15.458s-.794-11.593,2.69-16.032c2.022-2.578,4.939-4.481,6.608-7.285,5.618-9.435-5.053-24.121,3.283-31.474,2.368-2.088,5.686-2.825,8.556-4.237,14.687-7.226,13.8-28.915,26.517-38.952,2.526-1.994,6.092-3.458,9.086-2.06,2.6,1.217,3.8,4.177,4.084,6.915.767,7.341-3.192,14.363-3.225,21.726-.044,10.1,7.2,20.581,2.926,29.741-2.407,5.155-8.07,8.53-9.873,13.915-1.815,5.418.583,12.063-2.88,16.666-2.8,3.719-8.35,4.511-11.775,7.714-1.929,1.807-3.047,4.251-4.682,6.306-6.07,7.627-17.6,8.436-27.709,8.6" transform="translate(-431.891 -242.421)" fill="url(#linear-gradient)"/>
    </clipPath>
    <clipPath id="clip-path-2">
      <path id="Path_949" data-name="Path 949" d="M112.31,339.3a56.827,56.827,0,0,0-14.32-20.091,7.757,7.757,0,0,0-3.573-2.131c-3.043-.569-5.574,2.225-8.459,3.35-5.07,1.975-10.634-1.438-14.4-5.362a11.459,11.459,0,0,0-3.653-2.979,9.857,9.857,0,0,0-3.987-.47c-14.406.349-29.243,2.818-41.3,10.709-3.072,2.011-6.246,5.152-5.527,8.753.971,4.861,7.55,5.577,12.488,5.153l10.236-.882a9.737,9.737,0,0,1,4.824.4c3.83,1.716,4.089,7.463,7.606,9.752,4.423,2.875,10.755-1.48,15.456.912,2.172,1.1,3.442,3.4,5.291,4.993,5.49,4.715,14.108,1.913,19.915-2.408s11.045-10.139,18.158-11.471" transform="translate(-16.986 -311.604)" fill="url(#linear-gradient)"/>
    </clipPath>
    <clipPath id="clip-path-3">
      <path id="Path_969" data-name="Path 969" d="M100.426,336.165c1.87-5.357,3.76-10.8,4.006-16.4s-1.378-11.464-5.6-15.154c-2.452-2.142-5.653-3.459-7.8-5.886-7.237-8.169.455-24.489-9.05-30.12-2.7-1.6-6.076-1.7-9.139-2.549C57.154,261.727,54,240.385,39.715,232.946c-2.836-1.478-6.591-2.246-9.254-.324-2.315,1.671-2.933,4.782-2.7,7.51.614,7.31,5.784,13.431,7.182,20.614,1.919,9.854-3.212,21.432,2.665,29.582,3.307,4.587,9.462,6.829,12.222,11.753,2.778,4.954,1.67,11.886,5.908,15.736,3.423,3.113,8.989,2.855,12.927,5.347,2.22,1.405,3.765,3.585,5.744,5.289,7.342,6.32,18.745,4.969,28.65,3.253" transform="translate(-27.713 -231.477)" fill="url(#linear-gradient)"/>
    </clipPath>
    <clipPath id="clip-path-4">
      <path id="Path_980" data-name="Path 980" d="M91.171,352.835a10.419,10.419,0,0,0-2.106-3.234c.2-.05.422-.1.649-.15a28.743,28.743,0,0,1,4.528-.546c6.467-.423-2.621.062,7.775-.544,6.226-.367,6.826-.383,7.55.218a4.454,4.454,0,0,1,1.377,2.325,6.384,6.384,0,0,1,.033,3.22,5.211,5.211,0,0,1-.528,1.294c-.733,1.232-3.147,2.079-7.944,3.726-1.705.582-3.231,1.1-5.416,1.693a35.175,35.175,0,0,1-6.259,1.382A7.812,7.812,0,0,0,92,359.238a8.927,8.927,0,0,0-.066-2c-.087-.786-.19-1.579-.306-2.362A10.779,10.779,0,0,0,91.171,352.835Z" transform="translate(-89.065 -348.103)" fill="none"/>
    </clipPath>
    <clipPath id="clip-path-5">
      <path id="Path_988" data-name="Path 988" d="M154.182,355.69a10.391,10.391,0,0,0,1.322,3.626c-.21,0-.435.006-.668,0a28.717,28.717,0,0,1-4.534-.492c-6.394-1.051,2.567.531-7.7-1.228-6.147-1.049-6.737-1.171-7.306-1.919a4.469,4.469,0,0,1-.817-2.576,6.408,6.408,0,0,1,.7-3.145,5.226,5.226,0,0,1,.807-1.141c.992-1.035,3.536-1.315,8.581-1.832,1.792-.183,3.394-.339,5.658-.426a35.088,35.088,0,0,1,6.409.068,7.786,7.786,0,0,0-1.813,2.639,8.965,8.965,0,0,0-.388,1.966c-.093.786-.172,1.58-.236,2.369A10.748,10.748,0,0,0,154.182,355.69Z" transform="translate(-134.478 -346.458)" fill="none"/>
    </clipPath>
    <clipPath id="clip-path-6">
      <path id="Path_1017" data-name="Path 1017" d="M281.51,331.631l-7.056,3.335A6.934,6.934,0,0,0,271.2,337.4a5.2,5.2,0,0,0,.024,4.51c.588,1.442,1.507,2.73,2.127,4.159,1.35,3.116,1.189,6.644,1.553,10.021a5.284,5.284,0,0,0,.652,2.32,4.387,4.387,0,0,0,1.64,1.4,9.186,9.186,0,0,0,4.749,1.118c1.514-.06,3.326-.884,3.333-2.4a3.76,3.76,0,0,0-.753-1.9,18.258,18.258,0,0,1-2.882-7.284,8.774,8.774,0,0,1,2.235-7.288c.8-.788,1.884-1.53,1.936-2.654a3.429,3.429,0,0,0-.61-1.783l-3.733-6.561" transform="translate(-270.689 -331.056)" fill="none"/>
    </clipPath>
    <clipPath id="clip-path-7">
      <path id="Path_1024" data-name="Path 1024" d="M281.926,352.485l1.887,6.109a7.931,7.931,0,0,0,1.4,2.982,7.561,7.561,0,0,0,2.231,1.567,24.333,24.333,0,0,0,6.625,2.6,10.065,10.065,0,0,0,6.931-.917c1.638-.95,2.955-3.077,1.968-4.693-.911-1.492-3.063-1.5-4.547-2.422a7.944,7.944,0,0,1-1.687-1.574l-6.44-7.31a1.768,1.768,0,0,0-.632-.523,1.7,1.7,0,0,0-1.1.066,16.882,16.882,0,0,0-6.891,4.082" transform="translate(-281.68 -348.236)" fill="none"/>
    </clipPath>
    <clipPath id="clip-path-8">
      <path id="Path_1084" data-name="Path 1084" d="M402.742,319.214a5.847,5.847,0,0,0-3.448-1.578,45.469,45.469,0,0,0-11.624-.742,5.254,5.254,0,0,0-2.4.572,4.228,4.228,0,0,0-1.875,4.374,4.01,4.01,0,0,0,.51,1.073c.066.051.128.108.192.164.881.317,3.189,1.485,6.224,2.58,3.805,1.371,6.606,1.866,9.034,1.415a5.227,5.227,0,0,0,2.658-1.212,5.137,5.137,0,0,0,1.327-2.4A4.647,4.647,0,0,0,402.742,319.214Z" transform="translate(-383.285 -316.798)" fill="none"/>
    </clipPath>
    <clipPath id="clip-path-9">
      <path id="Path_1101" data-name="Path 1101" d="M382.112,317.761A11.856,11.856,0,0,0,378.6,315.9a4.03,4.03,0,0,0-3.762.708c-.559.52-.906,1.244-1.5,1.717a4.947,4.947,0,0,1-2.057.8l-3.881.866a10.055,10.055,0,0,0-1.626.459,6.528,6.528,0,0,0-3.43,3.73,14.306,14.306,0,0,0-.812,5.115,1.081,1.081,0,0,0,.258.873,1.048,1.048,0,0,0,.59.18c5.784.515,11.281-2.351,17-3.384a9.077,9.077,0,0,0,3.924-1.244c1.111-.829,1.656-2.608.7-3.609-.607-.634-1.659-.819-2.036-1.611-.431-.9.295-1.933.246-2.927" transform="translate(-361.526 -315.726)" fill="none"/>
    </clipPath>
  </defs>
  <g id="Group_339" data-name="Group 339" transform="translate(-16.986 -134.94)">
    <path id="Path_910" data-name="Path 910" d="M248.357,143.768c-10.516,2.7-61.15-6.825-79.3-8.1-6.354-.445-43.567-2.321-67.969,23.646C82.3,179.307,70.811,214.029,83.9,236.479c5,8.575,12.548,15.526,16.305,24.758,13.052,32.06-25.412,63.579-24.469,98.374.954,35.2,41.64,55.06,75.454,52.573s65.884-18.588,99.776-19.29c24.7-.513,48.928,7.206,73.615,8.154a136.035,136.035,0,0,0,62.535-12.673c35.414-16.529,65.359-56.9,53.752-95.379-14.814-49.109-83.528-61.365-100.644-109.66-3.169-8.943-4.332-18.709-8.841-27.007-8.919-16.418-30.227-21.094-43.457-21.379-1.486-.032-13.632-.218-22.619,3.282-.943.368-4.259,1.714-8.964,3.228C256.338,141.462,252.362,142.741,248.357,143.768Z" transform="translate(13.102 0)" opacity="0.61" fill="url(#linear-gradient)"/>
    <g id="Group_274" data-name="Group 274" transform="translate(524.457 266.4)" opacity="0.54">
      <g id="Group_273" data-name="Group 273">
        <g id="Group_272" data-name="Group 272" clip-path="url(#clip-path)">
          <path id="Path_911" data-name="Path 911" d="M439.516,358.457c-2.857-4.944-5.747-9.972-7.043-15.458s-.793-11.592,2.69-16.034c2.023-2.578,4.939-4.481,6.608-7.284,5.619-9.435-5.051-24.121,3.284-31.474,2.367-2.088,5.686-2.825,8.556-4.237,14.687-7.226,13.8-28.915,26.516-38.952,2.527-1.994,6.093-3.459,9.086-2.06,2.6,1.217,3.8,4.176,4.085,6.915.767,7.341-3.194,14.363-3.225,21.726-.045,10.1,7.2,20.581,2.926,29.741-2.408,5.155-8.07,8.529-9.874,13.915-1.814,5.418.585,12.062-2.88,16.665-2.8,3.719-8.349,4.511-11.774,7.715-1.93,1.805-3.047,4.251-4.683,6.306-6.069,7.627-17.594,8.436-27.708,8.6" transform="translate(-431.907 -242.424)" fill="url(#linear-gradient)"/>
          <path id="Path_912" data-name="Path 912" d="M493.095,239.415c-8.641,8.014-10.6,20.365-14.529,31.286-2.523,7.008-6.007,13.664-8.422,20.711-2.173,6.336-3.472,12.953-5.98,19.17a106.571,106.571,0,0,1-5.44,10.979l-33.2,60.992" transform="translate(-433.312 -243.092)" stroke="#fff2ff" stroke-miterlimit="10" stroke-width="0.345" fill="url(#linear-gradient)"/>
          <path id="Path_913" data-name="Path 913" d="M438.1,304.656l7.723,20" transform="translate(-430.505 -228.537)" stroke="#fff2ff" stroke-miterlimit="10" stroke-width="0.345" fill="url(#linear-gradient)"/>
          <path id="Path_914" data-name="Path 914" d="M447.531,317.369l34.445-9.463" transform="translate(-428.402 -227.812)" stroke="#fff2ff" stroke-miterlimit="10" stroke-width="0.345" fill="url(#linear-gradient)"/>
          <path id="Path_915" data-name="Path 915" d="M459.8,293.407a5.479,5.479,0,0,1,2.664-2.125,301.462,301.462,0,0,1,31.147-13.342" transform="translate(-425.664 -234.497)" stroke="#fff2ff" stroke-miterlimit="10" stroke-width="0.345" fill="url(#linear-gradient)"/>
          <path id="Path_916" data-name="Path 916" d="M459.688,301.392a199.94,199.94,0,0,1-12.673-25.557" transform="translate(-428.517 -234.967)" stroke="#fff2ff" stroke-miterlimit="10" stroke-width="0.345" fill="url(#linear-gradient)"/>
          <path id="Path_917" data-name="Path 917" d="M470.6,267.483q-3.985-7.023-7.241-14.384" transform="translate(-424.871 -240.039)" stroke="#fff2ff" stroke-miterlimit="10" stroke-width="0.345" fill="url(#linear-gradient)"/>
          <path id="Path_918" data-name="Path 918" d="M468.641,266.027c6.424-3.3,14.271-4.037,19.97-8.37" transform="translate(-423.692 -239.022)" stroke="#fff2ff" stroke-miterlimit="10" stroke-width="0.345" fill="url(#linear-gradient)"/>
          <path id="Path_919" data-name="Path 919" d="M459.592,306.695q-9.034-14.809-19.329-28.885" transform="translate(-430.023 -234.526)" stroke="#fff2ff" stroke-miterlimit="10" stroke-width="0.035" fill="url(#linear-gradient)"/>
          <path id="Path_920" data-name="Path 920" d="M456.439,309.4q-8.038-13.123-16.9-25.773" transform="translate(-430.185 -233.229)" stroke="#fff2ff" stroke-miterlimit="10" stroke-width="0.035" fill="url(#linear-gradient)"/>
          <path id="Path_921" data-name="Path 921" d="M454.115,312.132a197.6,197.6,0,0,0-13.457-18.843" transform="translate(-429.935 -231.073)" stroke="#fff2ff" stroke-miterlimit="10" stroke-width="0.035" fill="url(#linear-gradient)"/>
          <path id="Path_922" data-name="Path 922" d="M451.172,315.659q-5.212-6.443-10.067-13.137" transform="translate(-429.836 -229.013)" stroke="#fff2ff" stroke-miterlimit="10" stroke-width="0.035" fill="url(#linear-gradient)"/>
          <path id="Path_923" data-name="Path 923" d="M471.5,260.372q6.893-3.572,13.629-7.4" transform="translate(-423.054 -240.068)" stroke="#fff2ff" stroke-miterlimit="10" stroke-width="0.035" fill="url(#linear-gradient)"/>
          <path id="Path_924" data-name="Path 924" d="M472.7,254.909q8-3.891,16.175-7.468" transform="translate(-422.787 -241.301)" stroke="#fff2ff" stroke-miterlimit="10" stroke-width="0.035" fill="url(#linear-gradient)"/>
          <path id="Path_925" data-name="Path 925" d="M474.53,250.38q6.665-3.574,13.136-7.465" transform="translate(-422.378 -242.311)" stroke="#fff2ff" stroke-miterlimit="10" stroke-width="0.035" fill="url(#linear-gradient)"/>
          <path id="Path_926" data-name="Path 926" d="M444.361,322.972a209.58,209.58,0,0,0,32.128-5.294" transform="translate(-429.109 -225.631)" stroke="#fff2ff" stroke-miterlimit="10" stroke-width="0.035" fill="url(#linear-gradient)"/>
          <path id="Path_927" data-name="Path 927" d="M440.976,327.539a9.914,9.914,0,0,0,2.554-.423,116.372,116.372,0,0,1,24.521-3.5" transform="translate(-429.864 -224.307)" stroke="#fff2ff" stroke-miterlimit="10" stroke-width="0.035" fill="url(#linear-gradient)"/>
          <path id="Path_928" data-name="Path 928" d="M438.785,329.969a23.387,23.387,0,0,0,8.266.925q7.81-.112,15.588-.769" transform="translate(-430.353 -222.889)" stroke="#fff2ff" stroke-miterlimit="10" stroke-width="0.035" fill="url(#linear-gradient)"/>
        </g>
      </g>
      <path id="Path_930" data-name="Path 930" d="M438.9,333.5a56.754,56.754,0,0,0-3.044,10.983" transform="translate(-431.007 -222.103)" fill="none" stroke="#fff2ff" stroke-miterlimit="10" stroke-width="0.345"/>
    </g>
    <g id="Group_281" data-name="Group 281" transform="translate(16.986 253.015)">
      <g id="Group_277" data-name="Group 277" transform="translate(0 98.004)" opacity="0.54">
        <g id="Group_276" data-name="Group 276">
          <g id="Group_275" data-name="Group 275" clip-path="url(#clip-path-2)">
            <path id="Path_931" data-name="Path 931" d="M112.31,339.3a56.827,56.827,0,0,0-14.32-20.091,7.757,7.757,0,0,0-3.573-2.131c-3.043-.569-5.574,2.225-8.459,3.35-5.07,1.975-10.634-1.438-14.4-5.362a11.459,11.459,0,0,0-3.653-2.979,9.857,9.857,0,0,0-3.987-.47c-14.406.349-29.243,2.818-41.3,10.709-3.072,2.011-6.246,5.152-5.527,8.753.971,4.861,7.55,5.577,12.488,5.153l10.236-.882a9.737,9.737,0,0,1,4.824.4c3.83,1.716,4.089,7.463,7.606,9.752,4.423,2.875,10.755-1.48,15.456.912,2.172,1.1,3.442,3.4,5.291,4.993,5.49,4.715,14.108,1.913,19.915-2.408s11.045-10.139,18.158-11.471" transform="translate(-16.986 -311.604)" fill="url(#linear-gradient)"/>
            <path id="Path_932" data-name="Path 932" d="M10.258,333.314c7.436-6.175,17.082-9.212,26.7-10.174s19.316.012,28.926,1.064c22.364,2.445,46,5.855,63.371,20.149" transform="translate(-18.487 -309.119)" stroke="#fff" stroke-miterlimit="10" stroke-width="0.391" fill="url(#linear-gradient)"/>
            <path id="Path_933" data-name="Path 933" d="M58.808,327.066a48.737,48.737,0,0,0-12.785-17.41" transform="translate(-10.508 -312.039)" stroke="#fff" stroke-miterlimit="10" stroke-width="0.391" fill="url(#linear-gradient)"/>
            <path id="Path_934" data-name="Path 934" d="M50.29,323.659a70.067,70.067,0,0,1-16.676,12.926" transform="translate(-13.276 -308.915)" stroke="#fff" stroke-miterlimit="10" stroke-width="0.391" fill="url(#linear-gradient)"/>
            <path id="Path_935" data-name="Path 935" d="M35.243,324.331A33.941,33.941,0,0,0,24.7,316.119" transform="translate(-15.265 -310.597)" stroke="#fff" stroke-miterlimit="10" stroke-width="0.391" fill="url(#linear-gradient)"/>
            <path id="Path_936" data-name="Path 936" d="M72.97,325.56c-6.495,10.062-13.515,20.6-24.293,25.823" transform="translate(-9.915 -308.491)" stroke="#fff" stroke-miterlimit="10" stroke-width="0.391" fill="url(#linear-gradient)"/>
            <path id="Path_937" data-name="Path 937" d="M80.512,329.768a30.163,30.163,0,0,0-6.305-16.421" transform="translate(-4.22 -311.216)" stroke="#fff" stroke-miterlimit="10" stroke-width="0.391" fill="url(#linear-gradient)"/>
            <path id="Path_938" data-name="Path 938" d="M76.158,328.364a20.21,20.21,0,0,0-3.892-9.611" transform="translate(-4.653 -310.01)" stroke="#fff" stroke-miterlimit="10" stroke-width="0.039" fill="url(#linear-gradient)"/>
            <path id="Path_939" data-name="Path 939" d="M72.157,328.076a45.962,45.962,0,0,0-4.966-12.728" transform="translate(-5.785 -310.769)" stroke="#fff" stroke-miterlimit="10" stroke-width="0.039" fill="url(#linear-gradient)"/>
            <path id="Path_940" data-name="Path 940" d="M66.888,327.723a36.664,36.664,0,0,0-4.43-13.711" transform="translate(-6.841 -311.067)" stroke="#fff" stroke-miterlimit="10" stroke-width="0.039" fill="url(#linear-gradient)"/>
            <path id="Path_941" data-name="Path 941" d="M61.739,327.606a48.44,48.44,0,0,0-7-17.388" transform="translate(-8.563 -311.914)" stroke="#fff" stroke-miterlimit="10" stroke-width="0.039" fill="url(#linear-gradient)"/>
            <path id="Path_942" data-name="Path 942" d="M88.364,330.5a75.478,75.478,0,0,1-8.024,7.921" transform="translate(-2.851 -307.388)" stroke="#fff" stroke-miterlimit="10" stroke-width="0.039" fill="url(#linear-gradient)"/>
            <path id="Path_943" data-name="Path 943" d="M82.727,327.986a94.454,94.454,0,0,1-6.81,8.185" transform="translate(-3.838 -307.95)" stroke="#fff" stroke-miterlimit="10" stroke-width="0.039" fill="url(#linear-gradient)"/>
            <path id="Path_944" data-name="Path 944" d="M77.112,327.945q-3.589,4.48-6.83,9.223" transform="translate(-5.095 -307.959)" stroke="#fff" stroke-miterlimit="10" stroke-width="0.039" fill="url(#linear-gradient)"/>
            <path id="Path_945" data-name="Path 945" d="M44.336,323.339a104.231,104.231,0,0,1-12.52,11.824" transform="translate(-13.677 -308.987)" stroke="#fff" stroke-miterlimit="10" stroke-width="0.039" fill="url(#linear-gradient)"/>
            <path id="Path_946" data-name="Path 946" d="M39.3,323.066q-5.115,6.427-10.855,12.322" transform="translate(-14.429 -309.047)" stroke="#fff" stroke-miterlimit="10" stroke-width="0.039" fill="url(#linear-gradient)"/>
            <path id="Path_947" data-name="Path 947" d="M32.662,322.843l-8.948,12.282" transform="translate(-15.485 -309.097)" stroke="#fff" stroke-miterlimit="10" stroke-width="0.039" fill="url(#linear-gradient)"/>
            <path id="Path_948" data-name="Path 948" d="M24.943,325.6a74.66,74.66,0,0,0-6.931,9.518" transform="translate(-16.757 -308.482)" stroke="#fff" stroke-miterlimit="10" stroke-width="0.039" fill="url(#linear-gradient)"/>
          </g>
        </g>
        <path id="Path_950" data-name="Path 950" d="M92.091,331.395a123.343,123.343,0,0,1,11.3,7.863" transform="translate(-0.23 -307.189)" fill="none" stroke="#fff" stroke-miterlimit="10" stroke-width="0.391"/>
      </g>
      <g id="Group_280" data-name="Group 280" transform="translate(13.12)" opacity="0.54">
        <g id="Group_279" data-name="Group 279">
          <g id="Group_278" data-name="Group 278" clip-path="url(#clip-path-3)">
            <path id="Path_951" data-name="Path 951" d="M100.492,336.138c1.871-5.357,3.76-10.8,4.006-16.4s-1.378-11.465-5.6-15.154c-2.452-2.142-5.653-3.459-7.8-5.886-7.237-8.169.455-24.489-9.05-30.121-2.7-1.6-6.076-1.7-9.139-2.548-15.681-4.329-18.841-25.67-33.122-33.109-2.836-1.478-6.59-2.246-9.254-.324-2.314,1.671-2.933,4.782-2.7,7.51.614,7.31,5.784,13.431,7.182,20.614,1.919,9.855-3.212,21.431,2.665,29.581,3.308,4.588,9.463,6.83,12.224,11.754,2.776,4.954,1.668,11.886,5.906,15.736,3.425,3.113,8.989,2.855,12.927,5.347,2.22,1.405,3.765,3.585,5.744,5.289,7.342,6.32,18.745,4.969,28.65,3.253" transform="translate(-27.698 -231.483)" fill="url(#linear-gradient)"/>
            <path id="Path_952" data-name="Path 952" d="M27.41,229.4c9.924,6.219,14.128,17.916,19.994,27.849,3.765,6.376,8.4,12.229,12.068,18.658,3.3,5.783,5.8,12,9.4,17.608a106.124,106.124,0,0,0,7.351,9.709l43.738,53.387" transform="translate(-27.78 -231.941)" stroke="#fff" stroke-miterlimit="10" stroke-width="0.343" fill="url(#linear-gradient)"/>
            <path id="Path_953" data-name="Path 953" d="M81.875,285.178,78.048,306.14" transform="translate(-16.483 -219.497)" stroke="#fff" stroke-miterlimit="10" stroke-width="0.343" fill="url(#linear-gradient)"/>
            <path id="Path_954" data-name="Path 954" d="M80.469,298.175,45.08,295.33" transform="translate(-23.838 -217.232)" stroke="#fff" stroke-miterlimit="10" stroke-width="0.343" fill="url(#linear-gradient)"/>
            <path id="Path_955" data-name="Path 955" d="M63.926,277.079a5.44,5.44,0,0,0-3-1.58,299.856,299.856,0,0,0-32.888-7.244" transform="translate(-27.639 -223.272)" stroke="#fff" stroke-miterlimit="10" stroke-width="0.343" fill="url(#linear-gradient)"/>
            <path id="Path_956" data-name="Path 956" d="M60.89,286a198.36,198.36,0,0,0,7.628-27.3" transform="translate(-20.311 -225.405)" stroke="#fff" stroke-miterlimit="10" stroke-width="0.343" fill="url(#linear-gradient)"/>
            <path id="Path_957" data-name="Path 957" d="M43.354,254.916q2.587-7.6,4.4-15.389" transform="translate(-24.223 -229.681)" stroke="#fff" stroke-miterlimit="10" stroke-width="0.343" fill="url(#linear-gradient)"/>
            <path id="Path_958" data-name="Path 958" d="M47.748,252.455c-6.884-2.027-14.683-1.293-21.051-4.466" transform="translate(-27.939 -227.793)" stroke="#fff" stroke-miterlimit="10" stroke-width="0.343" fill="url(#linear-gradient)"/>
            <path id="Path_959" data-name="Path 959" d="M63.041,291.159q6.073-16.138,13.51-31.792" transform="translate(-19.831 -225.255)" stroke="#fff" stroke-miterlimit="10" stroke-width="0.034" fill="url(#linear-gradient)"/>
            <path id="Path_960" data-name="Path 960" d="M66.293,293.209q5.412-14.3,11.716-28.3" transform="translate(-19.105 -224.019)" stroke="#fff" stroke-miterlimit="10" stroke-width="0.034" fill="url(#linear-gradient)"/>
            <path id="Path_961" data-name="Path 961" d="M68.692,295.449a196.411,196.411,0,0,1,9.642-20.894" transform="translate(-18.57 -221.867)" stroke="#fff" stroke-miterlimit="10" stroke-width="0.034" fill="url(#linear-gradient)"/>
            <path id="Path_962" data-name="Path 962" d="M71.809,298.348q3.893-7.258,7.391-14.7" transform="translate(-17.875 -219.837)" stroke="#fff" stroke-miterlimit="10" stroke-width="0.034" fill="url(#linear-gradient)"/>
            <path id="Path_963" data-name="Path 963" d="M42.777,247.68q-7.394-2.209-14.682-4.7" transform="translate(-27.627 -228.911)" stroke="#fff" stroke-miterlimit="10" stroke-width="0.034" fill="url(#linear-gradient)"/>
            <path id="Path_964" data-name="Path 964" d="M41.045,242.481q-8.538-2.312-17.18-4.288" transform="translate(-28.571 -229.979)" stroke="#fff" stroke-miterlimit="10" stroke-width="0.034" fill="url(#linear-gradient)"/>
            <path id="Path_965" data-name="Path 965" d="M37.877,238.5q-7.173-2.253-14.212-4.85" transform="translate(-28.616 -230.992)" stroke="#fff" stroke-miterlimit="10" stroke-width="0.034" fill="url(#linear-gradient)"/>
            <path id="Path_966" data-name="Path 966" d="M84.191,303.28a208.145,208.145,0,0,1-32.352.795" transform="translate(-22.33 -215.458)" stroke="#fff" stroke-miterlimit="10" stroke-width="0.034" fill="url(#linear-gradient)"/>
            <path id="Path_967" data-name="Path 967" d="M87.444,307.383a9.786,9.786,0,0,1-2.572.06,115.719,115.719,0,0,0-24.592,1.135" transform="translate(-20.447 -214.577)" stroke="#fff" stroke-miterlimit="10" stroke-width="0.034" fill="url(#linear-gradient)"/>
            <path id="Path_968" data-name="Path 968" d="M89.455,310.02a23.231,23.231,0,0,1-7.9,2.438Q73.909,313.8,66.194,314.6" transform="translate(-19.127 -213.954)" stroke="#fff" stroke-miterlimit="10" stroke-width="0.034" fill="url(#linear-gradient)"/>
          </g>
        </g>
        <path id="Path_970" data-name="Path 970" d="M86.3,313.38a56.446,56.446,0,0,1,5.011,10.16" transform="translate(-14.642 -213.205)" fill="none" stroke="#fff" stroke-miterlimit="10" stroke-width="0.343"/>
      </g>
    </g>
    <g id="Group_283" data-name="Group 283" transform="translate(66.128 200.092)">
      <g id="Group_282" data-name="Group 282">
        <path id="Path_971" data-name="Path 971" d="M57.164,190.463H189.9v33.7H97.314v46.6h86.731v33.7H97.314v76.17H57.164Z" transform="translate(-57.164 -187.705)" fill="url(#linear-gradient)"/>
        <path id="Path_972" data-name="Path 972" d="M209.261,336.709l-14.837,43.928H154l64.577-190.174h51.649l67.368,190.174H294.366l-15.631-43.928Zm60.623-33.7c-13.5-40.135-22.108-65.776-26.7-82.869h-.275c-4.689,18.748-14.188,48.58-25.01,82.869Z" transform="translate(-35.56 -187.705)" fill="url(#linear-gradient)"/>
        <path id="Path_973" data-name="Path 973" d="M487.916,285.4c0,52.927-31.779,98.5-93.546,98.5-59.682,0-90.918-43.372-90.918-97.844,0-55.345,34.5-97.846,93.578-97.846C452.662,188.208,487.916,227.188,487.916,285.4Zm-142-.177c0,37.126,16.293,65.212,50.008,65.212,36.571,0,49.522-30.625,49.522-64.516,0-35.978-14.738-64.253-50.185-64.253C360.912,221.668,345.919,248.2,345.919,285.226Zm101.936,66.783,54.075,37.07-23.772,27.336-67.052-46.451Z" transform="translate(-2.217 -188.208)" fill="url(#linear-gradient)"/>
      </g>
    </g>
    <g id="Group_298" data-name="Group 298" transform="translate(97.594 296.436)">
      <g id="Group_297" data-name="Group 297">
        <g id="Group_292" data-name="Group 292" transform="translate(1.406 97.212)">
          <g id="Group_287" data-name="Group 287" transform="translate(0 2.011)">
            <g id="Group_284" data-name="Group 284">
              <path id="Path_974" data-name="Path 974" d="M95.36,348.906a28.2,28.2,0,0,0-4.523.545c-3.065.658-4.118,1.5-4.492,1.826a6.767,6.767,0,0,0-1.893,2.737,6.237,6.237,0,0,0-.139,3.975c1.179,3.4,5.9,4.122,6.423,4.2,1.641.226,3.585-.3,7.473-1.352,2.189-.593,3.715-1.112,5.416-1.694,4.8-1.644,7.215-2.49,7.944-3.726,1.227-2.081.854-5.4-.881-6.84-.722-.6-1.327-.579-7.547-.214C92.743,348.969,101.829,348.482,95.36,348.906Z" transform="translate(-84.041 -348.102)" fill="#2e3783"/>
            </g>
            <g id="Group_286" data-name="Group 286" transform="translate(6.145 0.001)">
              <g id="Group_285" data-name="Group 285" clip-path="url(#clip-path-4)">
                <circle id="Ellipse_317" data-name="Ellipse 317" cx="0.583" cy="0.583" r="0.583" transform="translate(8.29 9.755)" fill="none" stroke="#ffdef1" stroke-miterlimit="10" stroke-width="0.263"/>
                <path id="Path_975" data-name="Path 975" d="M92.062,357.252q9.625-2.018,19.165-4.413" transform="translate(-88.396 -347.047)" fill="none" stroke="#ffdef1" stroke-miterlimit="10" stroke-width="0.092" opacity="0.29"/>
                <path id="Path_976" data-name="Path 976" d="M110.985,350.3c-1.451.331-2.968.22-4.434.481-.813.144-1.6.4-2.418.542-.95.163-1.921.161-2.88.259a39.132,39.132,0,0,0-4.264.827,48.506,48.506,0,0,1-5.465.861" transform="translate(-88.516 -347.613)" fill="none" stroke="#ffdef1" stroke-miterlimit="10" stroke-width="0.092" opacity="0.29"/>
                <path id="Path_977" data-name="Path 977" d="M95.325,351.25a13.442,13.442,0,0,1,1.3,6.237" transform="translate(-87.668 -347.401)" fill="none" stroke="#ffdef1" stroke-miterlimit="10" stroke-width="0.092" opacity="0.97"/>
                <path id="Path_978" data-name="Path 978" d="M98.133,350.755a23.574,23.574,0,0,1,1.058,4.217,4.042,4.042,0,0,1-.11,1.859" transform="translate(-87.042 -347.511)" fill="none" stroke="#ffdef1" stroke-miterlimit="10" stroke-width="0.087" opacity="0.97"/>
                <path id="Path_979" data-name="Path 979" d="M101.078,350.221l.66,4.089a3.681,3.681,0,0,1-.049,2.017" transform="translate(-86.385 -347.631)" fill="none" stroke="#ffdef1" stroke-miterlimit="10" stroke-width="0.077" opacity="0.97"/>
                <circle id="Ellipse_318" data-name="Ellipse 318" cx="0.583" cy="0.583" r="0.583" transform="translate(11.452 8.956)" fill="none" stroke="#ffdef1" stroke-miterlimit="10" stroke-width="0.263"/>
                <circle id="Ellipse_319" data-name="Ellipse 319" cx="0.583" cy="0.583" r="0.583" transform="translate(14.632 8.286)" fill="none" stroke="#ffdef1" stroke-miterlimit="10" stroke-width="0.263"/>
                <circle id="Ellipse_320" data-name="Ellipse 320" cx="0.583" cy="0.583" r="0.583" transform="translate(13.944 1.724)" fill="none" stroke="#ffdef1" stroke-miterlimit="10" stroke-width="0.263"/>
                <circle id="Ellipse_321" data-name="Ellipse 321" cx="0.583" cy="0.583" r="0.583" transform="translate(10.532 2.329)" fill="none" stroke="#ffdef1" stroke-miterlimit="10" stroke-width="0.263"/>
                <circle id="Ellipse_322" data-name="Ellipse 322" cx="0.583" cy="0.583" r="0.583" transform="translate(7.035 2.989)" fill="none" stroke="#ffdef1" stroke-miterlimit="10" stroke-width="0.263"/>
              </g>
            </g>
            <path id="Path_981" data-name="Path 981" d="M84.453,353.741a6.738,6.738,0,0,1,1.221-2.061,7.471,7.471,0,0,1,.675-.674,8.708,8.708,0,0,1,3.837-1.678,10.419,10.419,0,0,1,2.106,3.234,10.78,10.78,0,0,1,.456,2.039c.116.783.219,1.575.306,2.362a8.929,8.929,0,0,1,.066,2,7.812,7.812,0,0,1-1.168,2.981,5.95,5.95,0,0,1-1.218-.035,11.518,11.518,0,0,1-3.571-1.139,5.67,5.67,0,0,1-2.85-3.055A6.235,6.235,0,0,1,84.453,353.741Z" transform="translate(-84.04 -347.829)" fill="#ffdef1"/>
          </g>
          <g id="Group_291" data-name="Group 291" transform="translate(61.686)">
            <g id="Group_288" data-name="Group 288" transform="translate(0 0.003)">
              <path id="Path_982" data-name="Path 982" d="M150.307,358.824a28.261,28.261,0,0,0,4.529.492c3.135.051,4.351-.531,4.788-.763a6.751,6.751,0,0,0,2.463-2.238,6.233,6.233,0,0,0,1.035-3.842c-.379-3.582-4.813-5.349-5.308-5.537-1.547-.592-3.559-.519-7.584-.373-2.268.082-3.87.242-5.659.426-5.047.515-7.591.794-8.58,1.833-1.666,1.749-2.054,5.067-.687,6.86.568.746,1.161.865,7.3,1.915C152.871,359.354,143.909,357.775,150.307,358.824Z" transform="translate(-134.474 -346.46)" fill="#2e3783"/>
            </g>
            <g id="Group_290" data-name="Group 290" transform="translate(0.004)">
              <g id="Group_289" data-name="Group 289" clip-path="url(#clip-path-5)">
                <circle id="Ellipse_323" data-name="Ellipse 323" cx="0.583" cy="0.583" r="0.583" transform="translate(13.798 1.659)" fill="none" stroke="#ffdef1" stroke-miterlimit="10" stroke-width="0.263"/>
                <path id="Path_983" data-name="Path 983" d="M153.945,349.38q-9.832-.209-19.666-.033" transform="translate(-134.522 -345.832)" fill="none" stroke="#ffdef1" stroke-miterlimit="10" stroke-width="0.092" opacity="0.29"/>
                <path id="Path_984" data-name="Path 984" d="M133.994,351.87c1.487,0,2.942.456,4.426.534.826.043,1.654-.029,2.479.018.963.056,1.907.276,2.865.4a38.9,38.9,0,0,0,4.34.159,48.684,48.684,0,0,1,5.519.4" transform="translate(-134.586 -345.251)" fill="none" stroke="#ffdef1" stroke-miterlimit="10" stroke-width="0.092" opacity="0.29"/>
                <path id="Path_985" data-name="Path 985" d="M146.062,354.844a13.423,13.423,0,0,1,.148-6.366" transform="translate(-131.963 -346.008)" fill="none" stroke="#ffdef1" stroke-miterlimit="10" stroke-width="0.092" opacity="0.97"/>
                <path id="Path_986" data-name="Path 986" d="M143.184,354.65a23.7,23.7,0,0,1-.077-4.348,4.053,4.053,0,0,1,.527-1.784" transform="translate(-132.569 -345.999)" fill="none" stroke="#ffdef1" stroke-miterlimit="10" stroke-width="0.087" opacity="0.97"/>
                <path id="Path_987" data-name="Path 987" d="M140.168,354.5l.281-4.133a3.677,3.677,0,0,1,.5-1.953" transform="translate(-133.208 -346.023)" fill="none" stroke="#ffdef1" stroke-miterlimit="10" stroke-width="0.077" opacity="0.97"/>
                <circle id="Ellipse_324" data-name="Ellipse 324" cx="0.583" cy="0.583" r="0.583" transform="translate(10.537 1.722)" fill="none" stroke="#ffdef1" stroke-miterlimit="10" stroke-width="0.263"/>
                <circle id="Ellipse_325" data-name="Ellipse 325" cx="0.583" cy="0.583" r="0.583" transform="translate(7.288 1.656)" fill="none" stroke="#ffdef1" stroke-miterlimit="10" stroke-width="0.263"/>
                <circle id="Ellipse_326" data-name="Ellipse 326" cx="0.583" cy="0.583" r="0.583" transform="translate(6.474 8.203)" fill="none" stroke="#ffdef1" stroke-miterlimit="10" stroke-width="0.263"/>
                <circle id="Ellipse_327" data-name="Ellipse 327" cx="0.583" cy="0.583" r="0.583" transform="translate(9.935 8.386)" fill="none" stroke="#ffdef1" stroke-miterlimit="10" stroke-width="0.263"/>
                <circle id="Ellipse_328" data-name="Ellipse 328" cx="0.583" cy="0.583" r="0.583" transform="translate(13.49 8.533)" fill="none" stroke="#ffdef1" stroke-miterlimit="10" stroke-width="0.263"/>
              </g>
            </g>
            <path id="Path_989" data-name="Path 989" d="M158.5,356.283a6.71,6.71,0,0,1-1.655,1.732,7.43,7.43,0,0,1-.81.5,8.7,8.7,0,0,1-4.116.767,10.391,10.391,0,0,1-1.322-3.626,10.748,10.748,0,0,1,.017-2.089c.064-.789.143-1.583.236-2.369a8.894,8.894,0,0,1,.388-1.966,7.786,7.786,0,0,1,1.813-2.639,5.881,5.881,0,0,1,1.178.309,11.535,11.535,0,0,1,3.222,1.917,5.668,5.668,0,0,1,2.085,3.62A6.23,6.23,0,0,1,158.5,356.283Z" transform="translate(-130.888 -346.427)" fill="#ffdef1"/>
          </g>
        </g>
        <g id="Group_293" data-name="Group 293" transform="translate(0 75.845)">
          <path id="Path_990" data-name="Path 990" d="M94.881,340.036q24.6-3.889,48.875-9.524c3.549-.823,7.15-1.681,10.79-1.5s7.391,1.557,9.611,4.446a6.789,6.789,0,0,1,1.419,3.191c.346,2.591-1.249,5.038-3.039,6.942-5.031,5.356-12.073,8.519-19.291,9.9s-14.649,1.111-21.966.422c-8.73-.821-17.516-2.257-25.549-5.773a2.413,2.413,0,0,1-.966-.63,2.37,2.37,0,0,1-.389-1.325,25.282,25.282,0,0,1,.369-6.681" transform="translate(-80.345 -328.989)" fill="#32224c"/>
          <path id="Path_991" data-name="Path 991" d="M151.879,351.715C112.2,338,105.726,334.348,105.726,334.348a29.252,29.252,0,0,0-10.347-3.408c-3.612-.473-7.55.207-10.252,2.652a6.792,6.792,0,0,0-1.968,2.884c-.8,2.487.327,5.181,1.745,7.375,3.99,6.172,10.352,10.544,17.2,13.2s14.214,3.718,21.535,4.352c14.4,1.246,24.192-1.435,26.169-1.1a1.492,1.492,0,0,0,1.1-.169,2.035,2.035,0,0,0,.585-1.51c.2-1.546.38-.828.892-3.582.384-2.073.322-2.687-.056-3.057A1.172,1.172,0,0,0,151.879,351.715Z" transform="translate(-82.891 -328.585)" fill="#32224c"/>
          <path id="Path_992" data-name="Path 992" d="M149.115,351.473a86.227,86.227,0,0,1-14.231-4.278c-1.442-.623-2.85-1.323-4.286-1.958-1.5-.662-3.028-1.252-4.557-1.842l-26.8-10.34c-2.558-.987-5.328-1.988-7.977-1.283" transform="translate(-81.023 -328.421)" fill="none" stroke="#ffdef1" stroke-miterlimit="10" stroke-width="0.095" opacity="0.29"/>
          <path id="Path_993" data-name="Path 993" d="M117.237,341.416c3.208-2.846,7.273-4.5,11.251-6.1a34.712,34.712,0,0,1,6.352-2.094,34.758,34.758,0,0,1,9.711-.023" transform="translate(-75.228 -328.125)" fill="none" stroke="#ffdef1" stroke-miterlimit="10" stroke-width="0.095" opacity="0.29"/>
          <path id="Path_994" data-name="Path 994" d="M132.219,356.1a9.453,9.453,0,0,0,4.331-5.139" transform="translate(-71.886 -324.088)" fill="none" stroke="#ffdef1" stroke-miterlimit="10" stroke-width="0.095" opacity="0.29"/>
          <path id="Path_995" data-name="Path 995" d="M135.785,354.556a15.674,15.674,0,0,0,1.767-3.031" transform="translate(-71.09 -323.961)" fill="none" stroke="#ffdef1" stroke-miterlimit="10" stroke-width="0.095" opacity="0.29"/>
          <path id="Path_996" data-name="Path 996" d="M151.167,333.88a6.54,6.54,0,0,1-.472,6.2" transform="translate(-67.764 -327.898)" fill="none" stroke="#ffdef1" stroke-miterlimit="10" stroke-width="0.095" opacity="0.29"/>
          <path id="Path_997" data-name="Path 997" d="M85.085,336.339a12.981,12.981,0,0,0,2.555,5.648,24.527,24.527,0,0,0,4.453,4.375" transform="translate(-82.401 -327.349)" fill="none" stroke="#ffdef1" stroke-miterlimit="10" stroke-width="0.095" opacity="0.29"/>
        </g>
        <g id="Group_295" data-name="Group 295" transform="translate(10.7 26.349)">
          <g id="Group_294" data-name="Group 294">
            <path id="Path_998" data-name="Path 998" d="M150.186,330.437c-.009,2.56-.124,5.267-1.474,7.45a11.3,11.3,0,0,1-6.3,4.333,24.97,24.97,0,0,1-4.258.964A68.946,68.946,0,0,1,126.1,344.8a.328.328,0,0,1-.084.007c-.648.031-1.3.061-1.959.077-.9.023-1.82.039-2.745.039-2.406,0-4.743-.093-6.956-.263-.07-.007-.131-.007-.193-.015-.4-.032-.8-.07-1.195-.109-7.418-.7-13.394-2.329-16.3-4.4-.016-.007-.023-.015-.039-.023-.007.016-.015.023-.022.039s-.009.023-.016.031c-.007-.023-.023-.038-.031-.061q-.927-1.91-1.666-3.794c-5.3-13.518-3.5-26.08.887-31.5,3.108-3.848,11.049-8.468,13.194-9.038.062-.016.116-.023.177-.039.362-.092.725-.177,1.1-.254a32.874,32.874,0,0,1,3.986-.547s.27-.023.509-.039c.285-.07.571-.138.849-.193.624-.138,1.249-.246,1.858-.339h.007a36.193,36.193,0,0,1,10.959.2q1.016.15,2.082.324,1.468.242,3.061.532c.593.108,1.21.215,1.835.332a29.288,29.288,0,0,1,4.912,1.435,13.024,13.024,0,0,1,4.743,2.8c2.352,2.345,3.076,5.831,3.57,9.115A140.233,140.233,0,0,1,150.186,330.437Z" transform="translate(-91.639 -287.29)" fill="#2e3783"/>
            <path id="Path_999" data-name="Path 999" d="M126.39,294.9l-.424,2.252c-.933,3.115-1.635,5.914-2.159,8.289-.278,1.227-.509,2.337-.695,3.324-.369,1.935-.817,4.549-1.2,7.734,0,.023-.009.039-.009.054q-.172,1.47-.331,3.1c0,.046-.007.093-.007.138-.007.086-.016.186-.023.286-.084.894-.154,1.82-.215,2.784-.009.108-.016.224-.023.346a119.453,119.453,0,0,0,.609,21.6c-.648.031-1.3.061-1.959.077-.9.023-1.82.039-2.745.039-2.406,0-4.743-.093-6.956-.263-.07-.007-.131-.007-.193-.015q.637-22.267,1.273-44.549v-.015c.031-.965.054-1.929.084-2.893l.07-2.476c.624-.138,1.249-.246,1.858-.339h.007a36.194,36.194,0,0,1,10.959.2Q125.325,294.723,126.39,294.9Z" transform="translate(-87.53 -287.29)" fill="#ffdef1"/>
            <path id="Path_1000" data-name="Path 1000" d="M131.47,310.107c-.062,1.411-.131,2.83-.193,4.242-.061,1.372-.278,3-1.433,3.593a14.945,14.945,0,0,1-1.566.439,1.186,1.186,0,0,0-.856,1.272,1.7,1.7,0,0,0,.4.648,6.82,6.82,0,0,1,1.048,5.3,13.367,13.367,0,0,1-.339,1.551,19.406,19.406,0,0,1-1.451,3.685c-1.342,2.63-1.75,8.869-2.8,11.945a31.866,31.866,0,0,0-1.2,2.961,2.182,2.182,0,0,1-.084.286.328.328,0,0,1-.084.007c-.648.031-1.3.061-1.959.077a13.588,13.588,0,0,1,.154-3.633c.532-3.839.186-7.757.579-11.612.286-2.83.478-4.9.618-6.432.007-.122.015-.239.023-.346.108-1.25.169-2.121.215-2.784.007-.1.016-.2.023-.286,0-.045.007-.092.007-.138a22.194,22.194,0,0,1,.331-3.1c0-.015.009-.031.009-.054.385-2.243,1.249-6.678,1.9-11.058a58.816,58.816,0,0,0,.794-8.69,8.028,8.028,0,0,0-.292-2.175,2.7,2.7,0,0,0-1.057-1.5,2.967,2.967,0,0,0-1.673-.324,15.916,15.916,0,0,0-6.771,1.01c-.625.238-1.087.424-1.458.609h-.007a3.058,3.058,0,0,0-.879.625,4.189,4.189,0,0,0-1.048,2.189,12.7,12.7,0,0,0-.084,2.893v.015c.138,2.954-.394,5.945-.032,8.883.432,3.579.509,12.477-1.048,35.68-.07-.007-.131-.007-.193-.015-.4-.032-.8-.07-1.195-.109-.771-2.112-1.465-11.243-3.269-16.617,0,0-1.435-4.543-.27-7.018.1-.208.216-.408.331-.609.7-1.141.9-1.38,1.034-1.681.448-1.034-.709-2.128-1.426-4.064a13.821,13.821,0,0,1-.6-3.986,46.984,46.984,0,0,1,.6-10.133,34.162,34.162,0,0,1,.879-4.935,21.046,21.046,0,0,1,.994-2.953,7.537,7.537,0,0,1,1.311-2.167,6.806,6.806,0,0,1,2.49-1.526,21.809,21.809,0,0,1,5.906-1.481,13.894,13.894,0,0,1,6.956,1.071,8.189,8.189,0,0,1,4.034,3.024,12.386,12.386,0,0,1,1.079,2.367c.216.564.394,1.1.541,1.6a20.569,20.569,0,0,1,.493,2C131.678,302.311,131.762,303.707,131.47,310.107Z" transform="translate(-88.53 -288.521)" fill="#323370"/>
          </g>
          <path id="Path_1001" data-name="Path 1001" d="M134.7,299c-2.489,2.266-2.647,6.062-2.626,9.428l.119,20.141a11.6,11.6,0,0,1-.283,3.222c-.86,3.052-4.092,5.07-4.681,8.184" transform="translate(-83.699 -286.184)" fill="none" stroke="#ffdef1" stroke-miterlimit="10" stroke-width="0.095" opacity="0.29"/>
          <path id="Path_1002" data-name="Path 1002" d="M133.131,325.378a11.238,11.238,0,0,1,6.743.427" transform="translate(-82.382 -280.372)" fill="none" stroke="#ffdef1" stroke-miterlimit="10" stroke-width="0.095" opacity="0.29"/>
          <path id="Path_1003" data-name="Path 1003" d="M138.351,328.664l-5.8-2.56" transform="translate(-82.512 -280.136)" fill="none" stroke="#ffdef1" stroke-miterlimit="10" stroke-width="0.095" opacity="0.29"/>
          <path id="Path_1004" data-name="Path 1004" d="M96.817,302.412c4.539,5.509,5.449,13.13,5.344,20.267a35.782,35.782,0,0,0,.393,8.239c.813,3.685,2.972,6.908,5.088,10.032" transform="translate(-90.483 -285.422)" fill="none" stroke="#ffdef1" stroke-miterlimit="10" stroke-width="0.095" opacity="0.29"/>
          <path id="Path_1005" data-name="Path 1005" d="M100.9,326a5.7,5.7,0,0,0-4.135,1.76" transform="translate(-90.495 -280.161)" fill="none" stroke="#ffdef1" stroke-miterlimit="10" stroke-width="0.095" opacity="0.29"/>
          <path id="Path_1006" data-name="Path 1006" d="M101.721,327.559a9.85,9.85,0,0,0-4.275,3.5" transform="translate(-90.343 -279.812)" fill="none" stroke="#ffdef1" stroke-miterlimit="10" stroke-width="0.095" opacity="0.29"/>
        </g>
        <g id="Group_296" data-name="Group 296" transform="translate(28.708)">
          <path id="Path_1007" data-name="Path 1007" d="M111.054,290.8l.143,6.517a4.078,4.078,0,0,0,.158,1.251c.4,1.168,1.718,1.617,2.876,1.756a13.292,13.292,0,0,0,8.28-1.745,4.1,4.1,0,0,0,1.881-1.9,5.269,5.269,0,0,0-.265-3.409l-1.162-3.743a2.8,2.8,0,0,0-.945-1.619,2.367,2.367,0,0,0-1.863-.054,41.635,41.635,0,0,0-8.817,3.39" transform="translate(-105.315 -262.358)" fill="#ff83a3"/>
          <path id="Path_1008" data-name="Path 1008" d="M112.265,269.3c-2-.331-3.94,1.267-4.776,3.241a14.2,14.2,0,0,0-.673,6.394,79.154,79.154,0,0,0,1.756,12.412c.725,3.246,1.888,6.76,4.631,8.349,3.338,1.934,7.737-.013,9.935-3.326s2.676-7.569,2.789-11.628a23.468,23.468,0,0,0-.555-6.728c-1.649-6.146-8.129-10.3-13.969-8.954" transform="translate(-106.277 -266.571)" fill="#ff83a3"/>
          <path id="Path_1009" data-name="Path 1009" d="M125.123,283.015c-.566-1.805-1.27-3.787-2.858-4.643a5.144,5.144,0,0,0-2.092-.52c-2.657-.192-5.33.483-7.977.175s-5.487-2.072-5.806-4.9c-.29-2.576,1.726-4.945,4.037-5.725s4.817-.341,7.182.229c3.234.78,6.737,2.05,8.365,5.142a12.973,12.973,0,0,1,1.009,6.623q-.106,2.374-.429,4.73" transform="translate(-106.362 -266.978)" fill="#32224c"/>
          <path id="Path_1010" data-name="Path 1010" d="M120.854,282.861l1.344-1.6a4.8,4.8,0,0,1,1.173-1.115,1.388,1.388,0,0,1,1.471-.038,2.054,2.054,0,0,1,.714,1.257c.493,2.155-.819,4.623-2.725,5.127a1.192,1.192,0,0,1-.9-.044,1.588,1.588,0,0,1-.615-.972,5.689,5.689,0,0,1,.05-3.309" transform="translate(-103.129 -264.093)" fill="#ff83a3"/>
        </g>
      </g>
      <rect id="Rectangle_63" data-name="Rectangle 63" width="49.465" height="33.742" rx="6.501" transform="translate(11.526 52.194)" fill="#cca0b8"/>
    </g>
    <g id="Group_316" data-name="Group 316" transform="translate(299.111 207.914)">
      <g id="Group_306" data-name="Group 306" transform="translate(28.18 166.896)">
        <g id="Group_302" data-name="Group 302">
          <path id="Path_1011" data-name="Path 1011" d="M281.51,331.631l-7.056,3.335A6.934,6.934,0,0,0,271.2,337.4a5.2,5.2,0,0,0,.024,4.51c.588,1.442,1.507,2.73,2.127,4.159,1.35,3.116,1.189,6.644,1.553,10.021a5.284,5.284,0,0,0,.652,2.32,4.387,4.387,0,0,0,1.64,1.4,9.186,9.186,0,0,0,4.749,1.118c1.514-.06,3.326-.884,3.333-2.4a3.76,3.76,0,0,0-.753-1.9,18.258,18.258,0,0,1-2.882-7.284,8.774,8.774,0,0,1,2.235-7.288c.8-.788,1.884-1.53,1.936-2.654a3.429,3.429,0,0,0-.61-1.783l-3.733-6.561" transform="translate(-270.689 -331.056)" fill="#32224c"/>
          <g id="Group_301" data-name="Group 301">
            <g id="Group_300" data-name="Group 300" clip-path="url(#clip-path-6)">
              <path id="Path_1012" data-name="Path 1012" d="M276.383,354.288a8.744,8.744,0,0,1,2.989-3.655,5.458,5.458,0,0,1,4.562-.762" transform="translate(-269.419 -326.906)" fill="none" stroke="#ffdef1" stroke-miterlimit="10" stroke-width="0.081" opacity="0.29"/>
              <g id="Group_299" data-name="Group 299" transform="translate(7.333 15.396)">
                <path id="Path_1013" data-name="Path 1013" d="M277.145,344.15a4.522,4.522,0,0,1,3.847-.147" transform="translate(-276.581 -343.644)" fill="none" stroke="#ffdef1" stroke-miterlimit="10" stroke-width="0.067"/>
                <path id="Path_1014" data-name="Path 1014" d="M277.466,346.082a4.575,4.575,0,0,1,4.193.176" transform="translate(-276.51 -343.195)" fill="none" stroke="#ffdef1" stroke-miterlimit="10" stroke-width="0.067"/>
                <path id="Path_1015" data-name="Path 1015" d="M277.932,347.852a4.111,4.111,0,0,1,3.859.111" transform="translate(-276.406 -342.8)" fill="none" stroke="#ffdef1" stroke-miterlimit="10" stroke-width="0.067"/>
                <circle id="Ellipse_329" data-name="Ellipse 329" cx="0.407" cy="0.407" r="0.407" transform="translate(0.979 4.762)" fill="none" stroke="#ffdef1" stroke-miterlimit="10" stroke-width="0.092"/>
                <circle id="Ellipse_330" data-name="Ellipse 330" cx="0.407" cy="0.407" r="0.407" transform="translate(0.979 4.762)" fill="none" stroke="#ffdef1" stroke-miterlimit="10" stroke-width="0.092"/>
                <circle id="Ellipse_331" data-name="Ellipse 331" cx="0.407" cy="0.407" r="0.407" transform="translate(0.428 2.465)" fill="none" stroke="#ffdef1" stroke-miterlimit="10" stroke-width="0.092"/>
                <circle id="Ellipse_332" data-name="Ellipse 332" cx="0.407" cy="0.407" r="0.407" transform="translate(0 0.176)" fill="none" stroke="#ffdef1" stroke-miterlimit="10" stroke-width="0.092"/>
              </g>
              <path id="Path_1016" data-name="Path 1016" d="M285.374,357.783a5.135,5.135,0,0,1-3.8,1.332,7.778,7.778,0,0,1-3.537-.744,4.836,4.836,0,0,1-2.419-2.614,8.016,8.016,0,0,1-.339-1.76l-.67-5.74a14.511,14.511,0,0,0-.585-3.072c-.478-1.388-1.364-2.6-1.959-3.94a10.211,10.211,0,0,1-.707-5.944" transform="translate(-270.576 -330.109)" fill="none" stroke="#ffdef1" stroke-miterlimit="10" stroke-width="0.081" opacity="0.29"/>
            </g>
          </g>
        </g>
        <g id="Group_305" data-name="Group 305" transform="translate(13.443 21.013)">
          <path id="Path_1018" data-name="Path 1018" d="M281.926,352.485l1.887,6.109a7.931,7.931,0,0,0,1.4,2.982,7.561,7.561,0,0,0,2.231,1.567,24.333,24.333,0,0,0,6.625,2.6,10.065,10.065,0,0,0,6.931-.917c1.638-.95,2.955-3.077,1.968-4.693-.911-1.492-3.063-1.5-4.547-2.422a7.944,7.944,0,0,1-1.687-1.574l-6.44-7.31a1.768,1.768,0,0,0-.632-.523,1.7,1.7,0,0,0-1.1.066,16.882,16.882,0,0,0-6.891,4.082" transform="translate(-281.68 -348.236)" fill="#32224c"/>
          <g id="Group_304" data-name="Group 304">
            <g id="Group_303" data-name="Group 303" clip-path="url(#clip-path-7)">
              <path id="Path_1019" data-name="Path 1019" d="M282.836,355.338A17.634,17.634,0,0,0,292.3,362.5a12.108,12.108,0,0,0,11.337-2.392" transform="translate(-281.422 -346.652)" fill="none" stroke="#ffdef1" stroke-miterlimit="10" stroke-width="0.087" opacity="0.29"/>
              <path id="Path_1020" data-name="Path 1020" d="M291.637,362.376a9.356,9.356,0,0,1,2.347-4.474,5.844,5.844,0,0,1,4.618-1.78" transform="translate(-279.459 -346.483)" fill="none" stroke="#ffdef1" stroke-miterlimit="10" stroke-width="0.087" opacity="0.29"/>
              <path id="Path_1021" data-name="Path 1021" d="M288.265,353.44a4.834,4.834,0,0,1,3.409-2.313" transform="translate(-280.211 -347.592)" fill="none" stroke="#ffdef1" stroke-miterlimit="10" stroke-width="0.071"/>
              <path id="Path_1022" data-name="Path 1022" d="M289.659,355.006a4.892,4.892,0,0,1,3.905-2.215" transform="translate(-279.9 -347.22)" fill="none" stroke="#ffdef1" stroke-miterlimit="10" stroke-width="0.071"/>
              <path id="Path_1023" data-name="Path 1023" d="M291.085,356.324a4.4,4.4,0,0,1,3.567-2.085" transform="translate(-279.582 -346.897)" fill="none" stroke="#ffdef1" stroke-miterlimit="10" stroke-width="0.071"/>
              <circle id="Ellipse_333" data-name="Ellipse 333" cx="0.435" cy="0.435" r="0.435" transform="translate(11.007 9.178)" fill="none" stroke="#ffdef1" stroke-miterlimit="10" stroke-width="0.099"/>
              <circle id="Ellipse_334" data-name="Ellipse 334" cx="0.435" cy="0.435" r="0.435" transform="translate(11.007 9.178)" fill="none" stroke="#ffdef1" stroke-miterlimit="10" stroke-width="0.099"/>
              <circle id="Ellipse_335" data-name="Ellipse 335" cx="0.435" cy="0.435" r="0.435" transform="translate(9.205 7.405)" fill="none" stroke="#ffdef1" stroke-miterlimit="10" stroke-width="0.099"/>
              <circle id="Ellipse_336" data-name="Ellipse 336" cx="0.435" cy="0.435" r="0.435" transform="translate(7.52 5.57)" fill="none" stroke="#ffdef1" stroke-miterlimit="10" stroke-width="0.099"/>
            </g>
          </g>
        </g>
      </g>
      <g id="Group_309" data-name="Group 309" transform="translate(14.967 92.767)">
        <g id="Group_307" data-name="Group 307">
          <path id="Path_1025" data-name="Path 1025" d="M259.967,274.968c-.736,10.388,3.777,20.311,6.914,30.241,3.279,10.38,5.117,21.194,8.811,31.434a43.266,43.266,0,0,1,2.156,6.875c.3,1.676.363,3.387.6,5.072a47.347,47.347,0,0,0,1.878,7.37l1.959,6.272c.784,2.507,1.608,5.089,3.315,7.087a3.765,3.765,0,0,0,2.319,1.468,4.5,4.5,0,0,0,2.137-.475q2.932-1.2,5.771-2.6a3.139,3.139,0,0,0,1.125-.786,2.929,2.929,0,0,0,.287-2.386,38.014,38.014,0,0,0-2.3-6.641,72.642,72.642,0,0,1-2.531-7.523,106.062,106.062,0,0,1-2.342-11.092c-3.548-21.615-3.428-43.65-5.56-65.448a1,1,0,0,0-1.277-1.085l-15.51.124c-2.785.022-6.071.316-7.5,2.708" transform="translate(-259.887 -269.936)" fill="#2e3783"/>
          <path id="Path_1026" data-name="Path 1026" d="M274.507,281.725c5.623-5.241,11.9-10.776,19.57-11.26a3.071,3.071,0,0,1,1.3.121,2.843,2.843,0,0,1,1.109.9,17.745,17.745,0,0,1,2.742,5.712l8.048,23.709a44.228,44.228,0,0,1,2.335,8.837c.681,5.647-.834,11.331-2.818,16.661a94.6,94.6,0,0,1-17.306,29.09,1.092,1.092,0,0,1-.736.473,1.067,1.067,0,0,1-.711-.409,20.857,20.857,0,0,1-5.506-10.388,6.309,6.309,0,0,1-.142-2.206,8.635,8.635,0,0,1,1.427-3.043c4.228-6.915,5.147-15.389,8.894-22.576a4.786,4.786,0,0,0,.779-2.386,4.431,4.431,0,0,0-.68-1.84l-5.821-10.575-12.237-22.227" transform="translate(-256.625 -270.449)" fill="#2e3783"/>
        </g>
        <g id="Group_308" data-name="Group 308" transform="translate(5.589 13.062)">
          <path id="Path_1027" data-name="Path 1027" d="M284.594,332.782l7.724-19.029c.9-2.22,1.818-4.642,1.184-6.952a11.025,11.025,0,0,0-1.594-3.076l-9.181-13.91" transform="translate(-260.38 -279.19)" fill="none" stroke="#ffdef1" stroke-miterlimit="10" stroke-width="0.071" opacity="0.29"/>
          <path id="Path_1028" data-name="Path 1028" d="M282.409,281.476a87.05,87.05,0,0,0-1.185,10.124c-.078,2.057-.011,4.117.056,6.174.522,15.886,1.057,31.876,4.47,47.4" transform="translate(-260.723 -281.05)" fill="none" stroke="#ffdef1" stroke-miterlimit="10" stroke-width="0.071" opacity="0.29"/>
          <path id="Path_1029" data-name="Path 1029" d="M290.094,306.846a11.322,11.322,0,0,1,5.106,2.525" transform="translate(-258.736 -275.39)" fill="none" stroke="#ffdef1" stroke-miterlimit="10" stroke-width="0.071" opacity="0.29"/>
          <path id="Path_1030" data-name="Path 1030" d="M289.639,307.861a25.507,25.507,0,0,1,5.208,5.345" transform="translate(-258.838 -275.164)" fill="none" stroke="#ffdef1" stroke-miterlimit="10" stroke-width="0.071" opacity="0.29"/>
          <path id="Path_1031" data-name="Path 1031" d="M286.431,340.11l-1.58,6.156" transform="translate(-259.906 -267.969)" fill="none" stroke="#ffdef1" stroke-miterlimit="10" stroke-width="0.071" opacity="0.29"/>
          <path id="Path_1032" data-name="Path 1032" d="M287.162,343.285a16.141,16.141,0,0,1-1.482,5.853" transform="translate(-259.721 -267.261)" fill="none" stroke="#ffdef1" stroke-miterlimit="10" stroke-width="0.071" opacity="0.29"/>
          <path id="Path_1033" data-name="Path 1033" d="M268.793,281.128a32.657,32.657,0,0,1,.4,3.874,5.8,5.8,0,0,1-.061,1.4,6.415,6.415,0,0,1-.749,1.77l-3.929,7.175" transform="translate(-264.456 -281.128)" fill="none" stroke="#ffdef1" stroke-miterlimit="10" stroke-width="0.071" opacity="0.29"/>
          <path id="Path_1034" data-name="Path 1034" d="M278.533,281.439q1.785,4.943,3.124,10.032" transform="translate(-261.315 -281.059)" fill="none" stroke="#ffdef1" stroke-miterlimit="10" stroke-width="0.071" opacity="0.29"/>
        </g>
      </g>
      <g id="Group_313" data-name="Group 313" transform="translate(0 31.903)">
        <g id="Group_310" data-name="Group 310">
          <path id="Path_1035" data-name="Path 1035" d="M290.708,293.211a79.491,79.491,0,0,1-14.938,1.385q-.444-9.883-.888-19.763c-.34-7.559-.679-15.121-1.311-22.66l.484,1.213a19,19,0,0,0-.538-1.858c-.229-2.665-.5-5.328-.966-7.961a55.741,55.741,0,0,0-6.707-18.31,6.075,6.075,0,0,0,1.29,1.218,10.819,10.819,0,0,0,7.191,2.3,6.763,6.763,0,0,0,5.861-4.322,9.351,9.351,0,0,0,.363-2.575q.018-.594.013-1.19a22.459,22.459,0,0,1,2.454.109,50.36,50.36,0,0,0-1.453,20.823c.018.133.038.267.057.4.009.06.018.121.027.181.015.094.029.19.045.284.027.172.055.345.083.516.021.124.042.248.064.372.009.051.017.1.027.153.022.128.045.257.069.386l0,.015c.028.15.055.3.084.451l.007.043c.027.137.053.276.079.415.023.12.046.24.071.358l.055.273q.1.521.215,1.042.073.349.149.695.139.648.284,1.292l.1.445c2.188,9.785,4.61,19.577,6.237,29.46Z" transform="translate(-243.59 -220.687)" fill="#ffdef1"/>
          <path id="Path_1036" data-name="Path 1036" d="M256.155,276.63c.207.216.422.423.643.62.043.122.092.243.146.362Z" transform="translate(-245.752 -208.206)" fill="#32224c"/>
          <path id="Path_1037" data-name="Path 1037" d="M276.111,251.711c.632,7.539.971,15.1,1.311,22.66q.444,9.881.888,19.763l-.464,0a77.916,77.916,0,0,1-9.107-.607c-4.138-.521-8.487-1.506-11.563-4.255a12.11,12.11,0,0,1-.226-5.446c.423-3.806.829-7.641,1.156-11.486,1.3-15.294,1.369-30.748-3.6-45.137l-.009-.026-.015-.044-.024-.07c3.339-1.108,6.447-2.932,9.7-4.242.053-.022.106-.043.16-.064.015.219.032.438.046.656q.235,3.245.472,6.487a3.411,3.411,0,0,0,.51,1.873c.627.821,1.855.947,2.729,1.475a2.09,2.09,0,0,1,.61.538c.007.007.013.017.02.024a3.7,3.7,0,0,1,.479,1.732c.7,5.645,4.162,10.454,6.873,15.526a19.015,19.015,0,0,1,.538,1.858Z" transform="translate(-246.13 -220.225)" fill="#32224c"/>
          <path id="Path_1038" data-name="Path 1038" d="M280.886,220.688q.006.6-.013,1.19a9.353,9.353,0,0,1-.363,2.575,6.763,6.763,0,0,1-5.861,4.322,10.819,10.819,0,0,1-7.191-2.3,6.075,6.075,0,0,1-1.29-1.218,3.1,3.1,0,0,1-.369-.626q-.673-1.121-1.4-2.213c.479-.139.961-.262,1.451-.364.347-.073.7-.137,1.052-.187,2-.289,4.03-.193,6.043-.34.3-.022.6-.049.894-.081h0c2.039-.212,4.059-.607,6.1-.723.146-.009.29-.016.435-.022C280.546,220.694,280.716,220.69,280.886,220.688Z" transform="translate(-243.913 -220.687)" fill="#ffdef1"/>
          <path id="Path_1039" data-name="Path 1039" d="M279.46,241.989q-.112-.521-.215-1.042Q279.35,241.468,279.46,241.989Z" transform="translate(-240.6 -216.167)" fill="#32224c"/>
          <path id="Path_1040" data-name="Path 1040" d="M303.337,288.272a1.419,1.419,0,0,1-.674.443,78.452,78.452,0,0,1-14.844,4.4l-.219.043-1.49-14.811c-1.627-9.883-4.048-19.675-6.237-29.46l-.1-.445c.931-4.7,1.98-9.393,1.038-14.023a3.684,3.684,0,0,1-.1-1.793l.01-.031a2.425,2.425,0,0,1,.68-.991c.66-.63,1.553-1.128,1.846-1.979a3.417,3.417,0,0,0-.112-1.939q-.809-3.15-1.617-6.3l-.116-.45c.671.105,1.338.237,2,.39.108.023.215.049.323.075a68.717,68.717,0,0,1,9.621,3.34,1.281,1.281,0,0,1,.656.445,1.329,1.329,0,0,1,.04.959l-.006.026c-1.2,5.887-.11,11.94,1.155,17.849v0q.218,1.018.439,2.033.626,2.884,1.23,5.772,1.238,5.92,2.386,11.86h0q2.27,11.731,4.181,23.526A1.452,1.452,0,0,1,303.337,288.272Z" transform="translate(-240.482 -220.631)" fill="#32224c"/>
          <path id="Path_1041" data-name="Path 1041" d="M256.361,226.168a15.048,15.048,0,0,1,6.184,4.006,18.349,18.349,0,0,1,3.948,8.075,17.037,17.037,0,0,1,.744,4.3c.075,4.552-2.752,8.8-2.553,13.351,1.323.385,2.72-1.44,3.91-.746a2.184,2.184,0,0,1,.714.85q1.33,2.288,2.644,4.584a2.854,2.854,0,0,1,.533,1.67,2.812,2.812,0,0,1-1.068,1.611c-3.536,3.257-7.462,6.241-12.017,7.781a9.171,9.171,0,0,1-4.212.582c-3.291-.477-5.527-3.668-6.52-6.842-1.495-4.779-1.086-9.929-.415-14.89a109.529,109.529,0,0,1,4.128-20.113,23.171,23.171,0,0,1,.857-2.243,6.932,6.932,0,0,1,1.737-1.388A6.843,6.843,0,0,1,256.361,226.168Z" transform="translate(-247.649 -219.464)" fill="#32224c"/>
          <path id="Path_1042" data-name="Path 1042" d="M291.224,224.046a11.391,11.391,0,0,0-1.446,8.2,128.18,128.18,0,0,0,4.283,16.073c.157.415.6,1.577.069,2.264a1.333,1.333,0,0,1-.592.4c-1.992.86-2.994,1.3-3.249,1.885-.16.367.034.489.257,1.651.5,2.6.415,3.016.265,3.277-.449.786-1.326.558-1.465,1.036-.314,1.076,3.595,4.024,8.08,4.242,1.314.064,3.324.224,4.689-1.1,1.391-1.347,1.615-3.471,1.652-5.407.25-12.75-.331-20.93-7.028-28.049A26.637,26.637,0,0,0,291.224,224.046Z" transform="translate(-238.351 -219.937)" fill="#32224c"/>
          <path id="Path_1043" data-name="Path 1043" d="M265.911,224.537a3.1,3.1,0,0,1-.369-.626Q265.727,224.223,265.911,224.537Z" transform="translate(-243.658 -219.967)" fill="#32224c"/>
          <path id="Path_1044" data-name="Path 1044" d="M279.46,241.989q-.112-.521-.215-1.042Q279.35,241.468,279.46,241.989Z" transform="translate(-240.6 -216.167)" fill="#32224c"/>
          <path id="Path_1045" data-name="Path 1045" d="M286.111,276.4c-1.627-9.883-4.048-19.675-6.237-29.46l-.1-.445c.931-4.7,1.98-9.393,1.038-14.023a3.684,3.684,0,0,1-.1-1.793l.01-.031a2.425,2.425,0,0,1,.68-.991l.1.956.25,2.483Z" transform="translate(-240.482 -218.686)" fill="#32224c"/>
          <path id="Path_1046" data-name="Path 1046" d="M274.259,251.212c-2.71-5.072-6.173-9.881-6.873-15.526a3.7,3.7,0,0,0-.479-1.732c-.006-.007-.012-.017-.02-.024a2.09,2.09,0,0,0-.61-.538c-.873-.528-2.1-.654-2.729-1.475a3.412,3.412,0,0,1-.51-1.873q-.237-3.244-.472-6.487c-.015-.218-.032-.437-.046-.656l.213-.084.039-.015c.564-.219,1.134-.421,1.71-.6.111-.035.223-.068.334-.1q.726,1.09,1.4,2.213a3.093,3.093,0,0,0,.369.626,55.741,55.741,0,0,1,6.708,18.31C273.757,245.884,274.031,248.547,274.259,251.212Z" transform="translate(-244.332 -220.371)" fill="#323370"/>
          <path id="Path_1047" data-name="Path 1047" d="M279.873,243.659c-.19.96-.374,1.923-.537,2.883l.253-4.174Q279.729,243.015,279.873,243.659Z" transform="translate(-240.58 -215.85)" fill="#ffdef1"/>
          <path id="Path_1048" data-name="Path 1048" d="M283.583,229.659c-.292.851-1.185,1.349-1.846,1.979a2.425,2.425,0,0,0-.68.991l-.01.031a3.684,3.684,0,0,0,.1,1.793c.942,4.629-.108,9.319-1.038,14.023q-.143-.644-.284-1.292-.075-.347-.149-.695-.11-.521-.215-1.042l-.055-.273c-.024-.119-.048-.238-.071-.358-.027-.138-.053-.278-.079-.415l-.007-.043c-.029-.15-.056-.3-.084-.451l0-.015c-.023-.13-.046-.258-.069-.386-.01-.051-.018-.1-.027-.153-.022-.124-.043-.248-.064-.372-.028-.171-.056-.344-.083-.516-.016-.094-.031-.19-.045-.284-.009-.06-.018-.121-.027-.181-.02-.133-.039-.267-.057-.4a50.36,50.36,0,0,1,1.453-20.823c.137.013.275.028.412.044q.382.044.761.1c.109.016.218.032.327.05l.116.45q.809,3.152,1.617,6.3A3.417,3.417,0,0,1,283.583,229.659Z" transform="translate(-240.812 -220.667)" fill="#323370"/>
          <path id="Path_1049" data-name="Path 1049" d="M249.412,261.253a7.75,7.75,0,0,0,5.575,1.413,18.274,18.274,0,0,0,5.61-1.727,58.383,58.383,0,0,0,10.963-6.468" transform="translate(-247.256 -213.15)" fill="none" stroke="#ffdef1" stroke-miterlimit="10" stroke-width="0.071" opacity="0.29"/>
          <path id="Path_1050" data-name="Path 1050" d="M290.906,251.486a42.6,42.6,0,0,0,5.79,2.081,14.275,14.275,0,0,0,6.1.344" transform="translate(-237.999 -213.815)" fill="none" stroke="#ffdef1" stroke-miterlimit="10" stroke-width="0.071" opacity="0.29"/>
          <path id="Path_1051" data-name="Path 1051" d="M258.105,281.168a44.516,44.516,0,0,0,1.677-5.685c.818-4.081.477-8.3.132-12.445" transform="translate(-245.317 -211.238)" fill="none" stroke="#ffdef1" stroke-miterlimit="10" stroke-width="0.071" opacity="0.29"/>
          <path id="Path_1052" data-name="Path 1052" d="M254.156,226.391a6.393,6.393,0,0,1,3.926,1.756,15,15,0,0,1,2.673,3.461c2.621,4.327,4.578,9.309,4.089,14.345" transform="translate(-246.198 -219.414)" fill="none" stroke="#ffdef1" stroke-miterlimit="10" stroke-width="0.071" opacity="0.29"/>
          <path id="Path_1053" data-name="Path 1053" d="M291.778,224.558a17.352,17.352,0,0,0-1.77,9.686A51.755,51.755,0,0,0,292.044,244" transform="translate(-238.214 -219.823)" fill="none" stroke="#ffdef1" stroke-miterlimit="10" stroke-width="0.071" opacity="0.29"/>
          <path id="Path_1054" data-name="Path 1054" d="M253.959,253.461a10.406,10.406,0,0,1,9.222-2.231" transform="translate(-246.242 -213.938)" fill="none" stroke="#ffdef1" stroke-miterlimit="10" stroke-width="0.071" opacity="0.29"/>
          <path id="Path_1055" data-name="Path 1055" d="M257.716,250.894l-4.48-.124" transform="translate(-246.403 -213.975)" fill="none" stroke="#ffdef1" stroke-miterlimit="10" stroke-width="0.071" opacity="0.29"/>
          <path id="Path_1056" data-name="Path 1056" d="M293.384,245.7a3.686,3.686,0,0,1,3.342.4" transform="translate(-237.446 -215.158)" fill="none" stroke="#ffdef1" stroke-miterlimit="10" stroke-width="0.071" opacity="0.29"/>
          <path id="Path_1057" data-name="Path 1057" d="M293.3,245.638a4.928,4.928,0,0,1,3.8-1.9" transform="translate(-237.464 -215.544)" fill="none" stroke="#ffdef1" stroke-miterlimit="10" stroke-width="0.071" opacity="0.29"/>
          <path id="Path_1058" data-name="Path 1058" d="M261.749,252.211a38.4,38.4,0,0,0,1.276-9.17" transform="translate(-244.504 -215.7)" fill="none" stroke="#ffdef1" stroke-miterlimit="10" stroke-width="0.068" opacity="0.29"/>
          <path id="Path_1059" data-name="Path 1059" d="M282.374,222.45a27.767,27.767,0,0,1,9.952,3.838" transform="translate(-239.902 -220.293)" fill="none" stroke="#ffdef1" stroke-miterlimit="10" stroke-width="0.071" opacity="0.29"/>
          <path id="Path_1060" data-name="Path 1060" d="M256.7,227.423a17.615,17.615,0,0,1,6.186-2.986" transform="translate(-245.629 -219.85)" fill="none" stroke="#ffdef1" stroke-miterlimit="10" stroke-width="0.071" opacity="0.29"/>
        </g>
        <g id="Group_312" data-name="Group 312" transform="translate(19.992 20.813)">
          <path id="Path_1061" data-name="Path 1061" d="M289.6,238.532a1.893,1.893,0,0,0-.955-.5A9.662,9.662,0,0,0,280.7,239.4c-.022.038-.049.073-.073.111q-.185,8.561-.371,17.12a1.665,1.665,0,0,0,.259,1.147,1.586,1.586,0,0,0,.979.418,16.786,16.786,0,0,0,5.9-.087,1.846,1.846,0,0,0,1.2-.585,1.942,1.942,0,0,0,.272-.985q.736-8.243,1.057-16.516A2.1,2.1,0,0,0,289.6,238.532Z" transform="translate(-260.366 -237.704)" fill="#cca0b8"/>
          <g id="Group_311" data-name="Group 311" transform="translate(0 5.659)">
            <path id="Path_1062" data-name="Path 1062" d="M294.294,247.5c-.077-.15-.121-.229-.367-.7-.972-1.884-.894-1.847-1.113-2.205a5.327,5.327,0,0,0-3.214-2.244.537.537,0,0,0-.5.1.494.494,0,0,0-.088.356,5.009,5.009,0,0,0,1.2,2.365,1.154,1.154,0,0,1,.259.7c-.04.5-.63.746-1.125.853a15.643,15.643,0,0,1-5.034.248,1.236,1.236,0,0,0,.29,1.229,3.125,3.125,0,0,0,1.107.718,14.619,14.619,0,0,0,3.123.986,39.188,39.188,0,0,1-4.774-1.832,2.482,2.482,0,0,0,.613,2.43,7.318,7.318,0,0,0,2.159,1.484l-2.576-1.6a.582.582,0,0,0-.256-.108c-.269-.017-.413.318-.416.587a2.9,2.9,0,0,0,1.706,2.328c2.293,1.273,5.084,1.091,7.7.873a2.634,2.634,0,0,0,1.312-.294,2.714,2.714,0,0,0,1.114-1.635C295.845,250.542,295,248.883,294.294,247.5Z" transform="translate(-259.625 -242.331)" fill="#ff83a3"/>
            <path id="Path_1063" data-name="Path 1063" d="M287.727,247.179a.608.608,0,0,0-.342-.077c-2.471-.05-5.08.828-7.334-.186l3.134-1.113c.511-.182,1.142-.63.9-1.114a.961.961,0,0,0-.816-.378,16.23,16.23,0,0,0-4.691.259,9.031,9.031,0,0,0-2.417.8,16.493,16.493,0,0,0-2.184,1.52,50.621,50.621,0,0,1-9.7,5.342,2.122,2.122,0,0,1-.272.44,3.828,3.828,0,0,0,.656,2.072,16.533,16.533,0,0,0,2.3,3.036.962.962,0,0,0,.366.274.94.94,0,0,0,.552-.042,12.79,12.79,0,0,0,2.965-1.279,11.59,11.59,0,0,1,3.255-1.682,10.47,10.47,0,0,1,2.626-.056,16.651,16.651,0,0,0,5.235-.649,6.463,6.463,0,0,0,3.427-2.027c.214-.278.35-.757.037-.916a.662.662,0,0,0-.448,0l-2.27.554a9.882,9.882,0,0,0,3.863-1.754,1.208,1.208,0,0,0,.445-.5.454.454,0,0,0-.2-.58.665.665,0,0,0-.336-.011l-4.571.634a16.469,16.469,0,0,0,5.455-1.629C287.706,247.92,288.061,247.41,287.727,247.179Z" transform="translate(-263.995 -241.904)" fill="#ff83a3"/>
          </g>
        </g>
      </g>
      <g id="Group_315" data-name="Group 315" transform="translate(19.336)">
        <g id="Group_314" data-name="Group 314" transform="translate(0 5.336)">
          <path id="Path_1064" data-name="Path 1064" d="M268.078,211.295A5.857,5.857,0,0,0,266.9,210a1.973,1.973,0,0,0-1.655-.382,2.413,2.413,0,0,0-1.42,1.585,4.835,4.835,0,0,0-.161,3.2,3.275,3.275,0,0,0,2.238,2.181,1.455,1.455,0,0,1,.675.253,1.07,1.07,0,0,1,.252.455c.308.892.457,1.837.844,2.7a9.637,9.637,0,0,0,2.079,2.737q1.57,1.589,3.272,3.039c1.14.971,2.521,1.95,4,1.7a4.827,4.827,0,0,0,1.271-.46c2.561-1.241,5.009-3.147,5.9-5.851a25.12,25.12,0,0,0,.675-4.168c.382-2.544,1.376-4.952,1.964-7.456s.734-5.269-.5-7.527A4.932,4.932,0,0,0,285,200.407a6.018,6.018,0,0,0-1.908-.893,12.587,12.587,0,0,0-10.807,1.638,10.894,10.894,0,0,0-4.534,9.8Z" transform="translate(-263.458 -198.966)" fill="#ff83a3"/>
          <path id="Path_1065" data-name="Path 1065" d="M280.722,221.545c.007.214.012.428.013.642q.005.594-.013,1.19a9.365,9.365,0,0,1-.363,2.575,6.76,6.76,0,0,1-5.861,4.321,10.812,10.812,0,0,1-7.189-2.3,6.111,6.111,0,0,1-1.292-1.218,3.1,3.1,0,0,1-.369-.626,2.407,2.407,0,0,1-.19-.69,4.515,4.515,0,0,1,.147-1.449c.031-.147.062-.292.093-.439q.769-3.612,1.535-7.225c.028-.135.057-.269.086-.4a.6.6,0,0,1,.218-.417.557.557,0,0,1,.4-.024,9.981,9.981,0,0,1,2.368.966,45.176,45.176,0,0,0,10.3,3.141Q280.694,220.564,280.722,221.545Z" transform="translate(-263.016 -195.286)" fill="#ff83a3"/>
        </g>
        <path id="Path_1066" data-name="Path 1066" d="M268,210.77a14.715,14.715,0,0,0,3.28-2.817,4.215,4.215,0,0,1,1.02-.97,4.071,4.071,0,0,1,2.935.016,21.907,21.907,0,0,0,8.935.227c1.762-.322,3.7-1.042,4.387-2.7a5.046,5.046,0,0,0-.33-3.848,9.449,9.449,0,0,0-4.475-4.969,11.383,11.383,0,0,0-3.1-.857A16.523,16.523,0,0,0,275,194.84a17.291,17.291,0,0,0-3.828,1.288,10.731,10.731,0,0,0-3.019,1.877,8.127,8.127,0,0,0-1.418,1.838c-1.991,3.431-1.958,7.646-1.585,11.595.064.678.219,1.475.84,1.753a1.5,1.5,0,0,0,1.736-.771c.363-.588.494-1.293.817-1.9" transform="translate(-263.126 -194.603)" fill="#323370"/>
      </g>
    </g>
    <g id="Group_336" data-name="Group 336" transform="translate(422.328 268.284)">
      <path id="Path_1067" data-name="Path 1067" d="M398.071,276.273a3.425,3.425,0,0,0-.009-1.729,3.462,3.462,0,0,0-1.064-1.7,13.1,13.1,0,0,0-2.636-1.786c-15.743-7.846-32.5-1.574-33.277.082a7.128,7.128,0,0,0-.461,1.36,7.268,7.268,0,0,0-.141,1.487c.124,6.672,3,21.07,3,21.07a97.974,97.974,0,0,0,3.153,13.339c.713,2.364,1.6,4.782,3.3,6.4a13.452,13.452,0,0,0,3.625,2.239l9.271,4.437a8.823,8.823,0,0,0,3.828,1.161,7.236,7.236,0,0,0,2.743-.725c3.046-1.334,5.992-3.7,7.007-7.17a1.7,1.7,0,0,0,.084-.839,1.893,1.893,0,0,0-.5-.783c-.594-.686-2.2-5.552-2.433-8.413-.312-3.759.772-13.855,4.365-26.944" transform="translate(-345.693 -238.778)" fill="#ff83a3"/>
      <path id="Path_1068" data-name="Path 1068" d="M381.746,283.685" transform="translate(-340.95 -235.099)" fill="none" stroke="#ff83a3" stroke-miterlimit="10" stroke-width="0.035"/>
      <g id="Group_320" data-name="Group 320" transform="translate(10.002 31.726)">
        <path id="Path_1069" data-name="Path 1069" d="M383.086,273.524a1.619,1.619,0,0,0-.832-.4,8.283,8.283,0,0,0-6.546,1.247,2.031,2.031,0,0,1-.155.254c-.037.065-.076.127-.113.191q.088,7.234.175,14.469a1.419,1.419,0,0,0,.254.974,1.346,1.346,0,0,0,.849.33,14.374,14.374,0,0,0,5.045-.243,1.585,1.585,0,0,0,1.008-.535,1.673,1.673,0,0,0,.2-.851q.393-7.076.429-14.167A1.8,1.8,0,0,0,383.086,273.524Z" transform="translate(-352.358 -269.229)" fill="#323370"/>
        <g id="Group_319" data-name="Group 319">
          <g id="Group_317" data-name="Group 317" transform="translate(27.668 1.143)">
            <path id="Path_1070" data-name="Path 1070" d="M395.789,295.659a153.5,153.5,0,0,0-2.253-18.715,12.835,12.835,0,0,0-.982-3.434,4.836,4.836,0,0,0-2.567-2.467,3.235,3.235,0,0,0-3.448.717,4.248,4.248,0,0,0-.84,2.553c-.357,4.621.926,9.178,2.2,13.632a22.812,22.812,0,0,0,2.01,5.316,5.993,5.993,0,0,0,2.628,2.592,3.312,3.312,0,0,0,3.59-.479" transform="translate(-377.752 -270.835)" fill="#cf567e"/>
            <path id="Path_1071" data-name="Path 1071" d="M388.011,283.542" transform="translate(-377.222 -268)" fill="#cf567e"/>
            <path id="Path_1072" data-name="Path 1072" d="M386.692,285.695l1.367,6.3a19.494,19.494,0,0,0,1.481,4.79,6.936,6.936,0,0,0,3.614,3.457,2.775,2.775,0,0,0,2.578-.146,2.719,2.719,0,0,0,.714-.9,8.617,8.617,0,0,0,.226-6.975,25.984,25.984,0,0,0-3.644-6.208l-2.1-2.928a.592.592,0,0,0-.336-.275.614.614,0,0,0-.43.152,15.48,15.48,0,0,0-3.514,3.326" transform="translate(-377.527 -268.165)" fill="#cf567e"/>
            <path id="Path_1073" data-name="Path 1073" d="M393.154,286.171a11.84,11.84,0,0,0-2.071-3.3l-3.746-4.725a2.223,2.223,0,0,0-.912-.79,2.409,2.409,0,0,0-.983-.066l-6.251.453a5.359,5.359,0,0,0,4.07,2.206c-.506,1.027-2.488.9-2.726,2.007-.138.641.526,1.226,1.206,1.3a3.931,3.931,0,0,0,1.967-.5,2.211,2.211,0,0,0-2,1.315.725.725,0,0,0-.054.5c.143.424.8.413,1.21.2s.8-.565,1.267-.548a3.52,3.52,0,0,0-1.244.542,1.084,1.084,0,0,0-.428,1.162c.163.438.671.645,1.129.8.391.137,1.038.1,1-.295-.01-.1-.07-.187-.048-.283.061-.265.483-.093.679.1a3.652,3.652,0,0,0,2.1,1.02c.377.048.822.071,1.025.375.105.159.115.362.209.528.252.445.927.415,1.448.3a17.744,17.744,0,0,0,1.829-.509,2.746,2.746,0,0,0,1.371-.818.95.95,0,0,0-.16-1.376" transform="translate(-379.19 -269.399)" fill="#cf567e"/>
          </g>
          <g id="Group_318" data-name="Group 318">
            <path id="Path_1074" data-name="Path 1074" d="M371.156,284.239l-7.679,5.056c-2.691,1.771-5.554,3.759-6.6,6.805a4.839,4.839,0,0,0-.262,2.332,7.177,7.177,0,0,0,1.4,2.818,1.444,1.444,0,0,0,.528.53,1.4,1.4,0,0,0,.8.04,14.452,14.452,0,0,0,8.766-4.309,21.046,21.046,0,0,0,1.866-2.61l3.19-4.977a2.233,2.233,0,0,0,.42-.961,2.1,2.1,0,0,0-.22-.976,16.463,16.463,0,0,0-2.139-3.694" transform="translate(-356.569 -266.702)" fill="#cf567e"/>
            <path id="Path_1075" data-name="Path 1075" d="M365.195,296.19l2.326-8.773c.289-1.089.579-2.18.769-3.29a26.825,26.825,0,0,0,.15-6.978,13.958,13.958,0,0,0-.83-4.009,5.348,5.348,0,0,0-2.561-2.924,3.339,3.339,0,0,0-3.673.548,6.422,6.422,0,0,0-1.452,3.547,188.658,188.658,0,0,0-2.871,24.7c-.032.651-.011,1.415.488,1.773.519.371,1.23.08,1.809-.216,2.252-1.156,4.673-2.485,5.768-4.874" transform="translate(-356.463 -269.901)" fill="#cf567e"/>
            <path id="Path_1076" data-name="Path 1076" d="M367.7,286.318l2.32-4.354a6.7,6.7,0,0,1,2.208-2.644l4.027-3.337a.5.5,0,0,1,.313-.152c.23.01.319.306.319.536a6.253,6.253,0,0,1-1.75,3.65,16.648,16.648,0,0,0,6.081-.423c.128.84-.651,1.531-1.4,1.936a9.689,9.689,0,0,1-4.32,1.164,36.4,36.4,0,0,0,4.253-1.114c.316.977-.608,1.9-1.5,2.414a11.433,11.433,0,0,1-2.643,1.109l3.515-1.441a2.507,2.507,0,0,1-.856,2.165,7.365,7.365,0,0,1-2.073,1.237,12.471,12.471,0,0,1,1.623-.708c.144.649-.5,1.178-1.063,1.53l-4.8,3a2.564,2.564,0,0,1-1.29.508c-.942,0-1.553-.963-1.954-1.814-.571-1.208-1.112-2.584-.667-3.844" transform="translate(-354.086 -268.578)" fill="#cf567e"/>
          </g>
        </g>
      </g>
      <g id="Group_332" data-name="Group 332" transform="translate(0 60.168)">
        <g id="Group_326" data-name="Group 326" transform="translate(42.678 28.918)">
          <g id="Group_325" data-name="Group 325" clip-path="url(#clip-path-8)">
            <path id="Path_1077" data-name="Path 1077" d="M399.293,327.077c-2.416.44-5.2-.06-8.98-1.424-3.037-1.09-5.338-2.26-6.223-2.576-.065-.056-.123-.111-.188-.168a4.017,4.017,0,0,1-.512-1.068,4.242,4.242,0,0,1,1.875-4.375,5.318,5.318,0,0,1,2.407-.576,45.579,45.579,0,0,1,11.623.745h.015a5.858,5.858,0,0,0-1.751,4.057,8.749,8.749,0,0,0,1.141,4.554A2.964,2.964,0,0,0,399.293,327.077Z" transform="translate(-383.285 -316.798)" fill="#ff83a3"/>
            <path id="Path_1078" data-name="Path 1078" d="M400.732,323.311A5.038,5.038,0,0,1,399.4,325.7a3.677,3.677,0,0,1-.59.455,5.7,5.7,0,0,1-2.067.758.18.18,0,0,1-.056.009,2.962,2.962,0,0,1-.594-.829,8.749,8.749,0,0,1-1.141-4.554,5.858,5.858,0,0,1,1.751-4.057A6.057,6.057,0,0,1,400,318.911a1.449,1.449,0,0,1,.141.148A4.654,4.654,0,0,1,400.732,323.311Z" transform="translate(-380.683 -316.645)" fill="#ffdef1"/>
            <g id="Group_324" data-name="Group 324" transform="translate(4.856 0.963)">
              <g id="Group_321" data-name="Group 321" transform="translate(5.66 0.871)">
                <path id="Path_1079" data-name="Path 1079" d="M392.438,323.268a13.629,13.629,0,0,1,.505-4.32" transform="translate(-391.761 -318.152)" fill="none" stroke="#ffdef1" stroke-miterlimit="10" stroke-width="0.062"/>
                <ellipse id="Ellipse_337" data-name="Ellipse 337" cx="0.509" cy="0.592" rx="0.509" ry="0.592" transform="translate(0.596 1.001) rotate(-79.281)" fill="none" stroke="#ffdef1" stroke-miterlimit="10" stroke-width="0.151"/>
                <ellipse id="Ellipse_338" data-name="Ellipse 338" cx="0.509" cy="0.592" rx="0.509" ry="0.592" transform="translate(0 5.506) rotate(-79.281)" fill="none" stroke="#ffdef1" stroke-miterlimit="10" stroke-width="0.151"/>
              </g>
              <g id="Group_322" data-name="Group 322" transform="translate(2.957 0.359)">
                <path id="Path_1080" data-name="Path 1080" d="M390.228,322.85a13.662,13.662,0,0,1,.505-4.32" transform="translate(-389.552 -317.734)" fill="none" stroke="#ffdef1" stroke-miterlimit="10" stroke-width="0.062"/>
                <ellipse id="Ellipse_339" data-name="Ellipse 339" cx="0.509" cy="0.592" rx="0.509" ry="0.592" transform="translate(0.596 1.001) rotate(-79.281)" fill="none" stroke="#ffdef1" stroke-miterlimit="10" stroke-width="0.151"/>
                <ellipse id="Ellipse_340" data-name="Ellipse 340" cx="0.509" cy="0.592" rx="0.509" ry="0.592" transform="translate(0 5.506) rotate(-79.281)" fill="none" stroke="#ffdef1" stroke-miterlimit="10" stroke-width="0.151"/>
              </g>
              <g id="Group_323" data-name="Group 323" transform="translate(0 0)">
                <path id="Path_1081" data-name="Path 1081" d="M387.808,322.378a12.692,12.692,0,0,1,.476-4.163" transform="translate(-387.135 -317.445)" fill="none" stroke="#ffdef1" stroke-miterlimit="10" stroke-width="0.061"/>
                <ellipse id="Ellipse_341" data-name="Ellipse 341" cx="0.49" cy="0.592" rx="0.49" ry="0.592" transform="translate(0.565 0.964) rotate(-79.281)" fill="none" stroke="#ffdef1" stroke-miterlimit="10" stroke-width="0.148"/>
                <ellipse id="Ellipse_342" data-name="Ellipse 342" cx="0.49" cy="0.592" rx="0.49" ry="0.592" transform="translate(0 5.305) rotate(-79.281)" fill="none" stroke="#ffdef1" stroke-miterlimit="10" stroke-width="0.148"/>
              </g>
            </g>
            <path id="Path_1082" data-name="Path 1082" d="M397.957,319.8a36.824,36.824,0,0,1-6.316-.466c-1-.191-1.989-.466-2.988-.678a43.791,43.791,0,0,0-5.493-.717" transform="translate(-383.313 -316.543)" fill="none" stroke="#ffdef1" stroke-miterlimit="10" stroke-width="0.086" opacity="0.23"/>
            <path id="Path_1083" data-name="Path 1083" d="M398.649,323.067l-3.825-.92c-1.042-.251-2.083-.5-3.137-.7-3.294-.607-6.687-.663-9.929-1.5" transform="translate(-383.625 -316.095)" fill="none" stroke="#ffdef1" stroke-miterlimit="10" stroke-width="0.086" opacity="0.23"/>
          </g>
        </g>
        <g id="Group_327" data-name="Group 327">
          <path id="Path_1085" data-name="Path 1085" d="M395.594,321.706a170.233,170.233,0,0,1-27.374-20.143c-3.6-3.256-7.3-6.793-12.01-7.961a6.751,6.751,0,0,0-5.336.538A5.629,5.629,0,0,0,348.624,299a11.339,11.339,0,0,0,1.737,5.252c3.874,6.706,10.871,11.129,18.213,13.592,3.526,1.183,7.2,1.984,10.544,3.618,3.724,1.821,6.882,4.6,10.393,6.81a1.517,1.517,0,0,0,2.429-.528,21.839,21.839,0,0,0,3.644-6.871" transform="translate(-348.34 -293.121)" fill="#32224c"/>
          <path id="Path_1086" data-name="Path 1086" d="M376.1,315.3c7-7.867,14.365-16,24.042-19.831a32.924,32.924,0,0,1,12.959-2.3,8.771,8.771,0,0,1,3.043.49,3.735,3.735,0,0,1,2.191,2.11c.543,1.535-.25,3.219-1.175,4.55-2.564,3.685-6.244,6.38-9.987,8.773a111.026,111.026,0,0,1-19.792,10.027,9.1,9.1,0,0,1-2.258.647,8.259,8.259,0,0,1-4.168-.93c-1.941-.861-3.941-2.084-4.687-4.116" transform="translate(-342.208 -293.155)" fill="#32224c"/>
          <path id="Path_1087" data-name="Path 1087" d="M349.4,295.494c-1.591,2.84-.988,6.355-.3,9.538a59.4,59.4,0,0,0,3.452,11.756,22.026,22.026,0,0,0,7.515,9.5,16.682,16.682,0,0,0,5.4,2.365,12.776,12.776,0,0,0,8.439-.669,8.73,8.73,0,0,0,4.985-6.6c.428-3.693-1.945-7.123-4.588-9.738-1.646-1.628-3.441-3.1-5.232-4.568l-7.39-6.058a32.484,32.484,0,0,0-5.86-4.121,10.919,10.919,0,0,0-6.945-1.2" transform="translate(-348.391 -292.633)" fill="#32224c"/>
          <path id="Path_1088" data-name="Path 1088" d="M377.315,323.417c1.888-4.758,12.441-13.282,12.441-13.282,6.046-4.884,4.455-5.29,10.845-10.033a29.963,29.963,0,0,1,13.261-5.936c1.533-.225,3.352-.17,4.289,1.095a4.354,4.354,0,0,1,.554,3.044,17.437,17.437,0,0,1-4.528,9.6,35.472,35.472,0,0,1-8.362,6.569c-4.236,2.555-8.689,4.7-13.035,7.051a31.577,31.577,0,0,0-4.519,2.819c-2.4,1.881-4.574,4.511-7.575,4.843a2.518,2.518,0,0,1-2.019-.5c-.026-.024-.042-.044-.073-.079a8.061,8.061,0,0,1-1.437-3.184c-.043-.168-.067-.331-.067-.331-.006-.043-.012-.087-.016-.136A3.669,3.669,0,0,1,377.315,323.417Z" transform="translate(-341.994 -292.952)" fill="#32224c"/>
          <path id="Path_1089" data-name="Path 1089" d="M377.592,321.848q3.728-5.526,7.825-10.788a52.879,52.879,0,0,1,8.249-8.876,33.323,33.323,0,0,1,12.7-6.256" transform="translate(-341.876 -292.536)" fill="none" stroke="#ffdef1" stroke-miterlimit="10" stroke-width="0.061" opacity="0.29"/>
          <path id="Path_1090" data-name="Path 1090" d="M352.671,301.174c1.775,3.748,3.625,7.6,6.7,10.384a27.681,27.681,0,0,0,3.819,2.785,54.4,54.4,0,0,0,12.117,6.015" transform="translate(-347.436 -291.366)" fill="none" stroke="#ffdef1" stroke-miterlimit="10" stroke-width="0.061" opacity="0.29"/>
          <path id="Path_1091" data-name="Path 1091" d="M397.822,297a3.473,3.473,0,0,1,1.26-1.31" transform="translate(-337.363 -292.588)" fill="none" stroke="#ffdef1" stroke-miterlimit="10" stroke-width="0.061" opacity="0.29"/>
          <path id="Path_1092" data-name="Path 1092" d="M352.063,303.964a7.737,7.737,0,0,0,2.594,1.221" transform="translate(-347.572 -290.743)" fill="none" stroke="#ffdef1" stroke-miterlimit="10" stroke-width="0.061" opacity="0.29"/>
          <path id="Path_1093" data-name="Path 1093" d="M384.564,315.568c-8.775-4.76-15.882-12.022-23.832-18.058" transform="translate(-345.638 -292.183)" fill="none" stroke="#ffdef1" stroke-miterlimit="10" stroke-width="0.061" opacity="0.29"/>
        </g>
        <g id="Group_331" data-name="Group 331" transform="translate(16.065 27.607)">
          <g id="Group_330" data-name="Group 330" clip-path="url(#clip-path-9)">
            <g id="Group_328" data-name="Group 328" transform="translate(0.18 0.004)">
              <path id="Path_1094" data-name="Path 1094" d="M376.956,315.772a9.765,9.765,0,0,0-1.534,1.464,16.107,16.107,0,0,1-1.27,1.57c-1.963,1.906-5.243,1.474-7.647,2.71a5.569,5.569,0,0,0-.7.432c-1.831,1.341-2.45,3.763-2.915,5.987a11.958,11.958,0,0,0-.331,2.427h-.034a1.047,1.047,0,0,1-.591-.176,1.1,1.1,0,0,1-.258-.873,14.424,14.424,0,0,1,.812-5.12,6.529,6.529,0,0,1,3.432-3.729,9.82,9.82,0,0,1,1.625-.455c1.3-.292,2.591-.576,3.88-.868a4.807,4.807,0,0,0,2.057-.8c.6-.471.949-1.2,1.5-1.717A3.424,3.424,0,0,1,376.956,315.772Z" transform="translate(-361.673 -315.721)" fill="#ffdef1"/>
              <path id="Path_1095" data-name="Path 1095" d="M368.329,326.841a6.018,6.018,0,0,1-.331,2.025,19.284,19.284,0,0,1-5.691.426,11.964,11.964,0,0,1,.331-2.425c.465-2.225,1.084-4.648,2.915-5.988a5.717,5.717,0,0,1,.7-.432,4.166,4.166,0,0,1,1.879,2.729A12.8,12.8,0,0,1,368.329,326.841Z" transform="translate(-361.531 -314.678)" fill="#ffdef1"/>
              <path id="Path_1096" data-name="Path 1096" d="M382.47,325.719a9.129,9.129,0,0,1-3.921,1.246c-3.81.68-7.507,2.181-11.272,2.954a6.019,6.019,0,0,0,.331-2.025,12.794,12.794,0,0,0-.194-3.666,4.166,4.166,0,0,0-1.879-2.729c2.4-1.237,5.684-.8,7.647-2.709a16.474,16.474,0,0,0,1.271-1.572,9.748,9.748,0,0,1,1.533-1.463,4.971,4.971,0,0,1,1.793.147,11.786,11.786,0,0,1,3.51,1.858l.092-.193c.049,1-.676,2.035-.251,2.928a1.724,1.724,0,0,0,.63.675,7.908,7.908,0,0,1,1.407.942C384.129,323.108,383.582,324.886,382.47,325.719Z" transform="translate(-360.811 -315.73)" fill="#ff83a3"/>
              <path id="Path_1097" data-name="Path 1097" d="M367.119,325.036c5.072-.86,9.594-3.839,14.671-4.666" transform="translate(-360.458 -314.695)" fill="none" stroke="#ffdef1" stroke-miterlimit="10" stroke-width="0.063" opacity="0.29"/>
            </g>
            <g id="Group_329" data-name="Group 329" transform="translate(9.335 5.814)">
              <circle id="Ellipse_343" data-name="Ellipse 343" cx="0.6" cy="0.6" r="0.6" transform="translate(0 2.042)" fill="none" stroke="#ffdef1" stroke-miterlimit="10" stroke-width="0.143"/>
              <circle id="Ellipse_344" data-name="Ellipse 344" cx="0.6" cy="0.6" r="0.6" transform="translate(2.825 1.062)" fill="none" stroke="#ffdef1" stroke-miterlimit="10" stroke-width="0.143"/>
              <circle id="Ellipse_345" data-name="Ellipse 345" cx="0.6" cy="0.6" r="0.6" transform="translate(5.552)" fill="none" stroke="#ffdef1" stroke-miterlimit="10" stroke-width="0.143"/>
              <path id="Path_1098" data-name="Path 1098" d="M369.71,322.709a18.131,18.131,0,0,1,.475,4.932" transform="translate(-369.035 -319.982)" fill="none" stroke="#ffdef1" stroke-miterlimit="10" stroke-width="0.086"/>
              <path id="Path_1099" data-name="Path 1099" d="M371.926,321.885a10.353,10.353,0,0,1,.524,4.979" transform="translate(-368.541 -320.166)" fill="none" stroke="#ffdef1" stroke-miterlimit="10" stroke-width="0.086"/>
              <path id="Path_1100" data-name="Path 1100" d="M374.192,321.173a9.27,9.27,0,0,1,.082,5.36" transform="translate(-368.035 -320.325)" fill="none" stroke="#ffdef1" stroke-miterlimit="10" stroke-width="0.086"/>
            </g>
          </g>
        </g>
      </g>
      <g id="Group_335" data-name="Group 335" transform="translate(18.391)">
        <path id="Path_1102" data-name="Path 1102" d="M373,289.126a3.954,3.954,0,0,1-4.512.291,9.741,9.741,0,0,1-3.311-3.5c-1.1-1.72-2.077-3.745-1.64-5.745a20.9,20.9,0,0,0,.685-2.468c.133-1.441-.739-2.8-.786-4.245-.064-1.929,1.3-3.551,2.1-5.3,2.014-4.415.4-9.705,1.583-14.423A13.508,13.508,0,0,1,378.98,244a9.151,9.151,0,0,1,4,.467,8.834,8.834,0,0,1,4.03,3.412,25.043,25.043,0,0,1,2.745,6.407l4.67,14.506a8.158,8.158,0,0,1,.565,3.023,16.28,16.28,0,0,0-.4,3.043c.224,1.841,2.226,3.032,2.534,4.862a5.688,5.688,0,0,1-.774,3.247,12.969,12.969,0,0,1-1.957,3.315,4.267,4.267,0,0,1-3.355,1.558c-1.873-.141-3.2-1.855-4.277-3.42a9.673,9.673,0,0,1-1.992-4.237,14.242,14.242,0,0,0-.191-2.15,23.89,23.89,0,0,0-1.334-2.589c-.6-1.482-.394-3.519-1.759-4.322a3.527,3.527,0,0,0-1.358-.369,11.5,11.5,0,0,0-4.828.111,4.436,4.436,0,0,0-3.219,3.35c-.341,2.345,1.78,4.519,1.454,6.866-.1.707-.416,1.369-.49,2.078-.134,1.27.515,2.477.735,3.734s-.311,2.9-1.562,2.994" transform="translate(-363.427 -243.962)" fill="#32224c"/>
        <g id="Group_334" data-name="Group 334" transform="translate(7.997 3.791)">
          <g id="Group_333" data-name="Group 333" transform="translate(0 0.445)">
            <path id="Path_1103" data-name="Path 1103" d="M376.643,247.444a5.275,5.275,0,0,0-3.568,2.147,11.168,11.168,0,0,0-1.754,3.88,51.83,51.83,0,0,0-1.344,12.257,6.685,6.685,0,0,0,.092,1.684,6.012,6.012,0,0,0,1.312,2.346c1.377,1.714,3.138,3.357,5.325,3.585a6.222,6.222,0,0,0,3.061-.531,8.466,8.466,0,0,0,3.175-2.361,11.313,11.313,0,0,0,1.218-1.837,17.2,17.2,0,0,0-1.278-18.051,8.612,8.612,0,0,0-2.765-2.556,4.383,4.383,0,0,0-3.662-.311" transform="translate(-369.966 -247.426)" fill="#cf567e"/>
            <path id="Path_1104" data-name="Path 1104" d="M371.347,264.243c.235,2.085-1.316,4.181-.692,6.184a6.069,6.069,0,0,0,1.994,2.537,6.838,6.838,0,0,0,1.854,1.3,6.632,6.632,0,0,0,1.627.366c1.773.243,3.674.438,5.274-.366a.72.72,0,0,0,.328-.267.8.8,0,0,0,.042-.467,22.994,22.994,0,0,1,.226-6.643l-10.818-2.28" transform="translate(-369.845 -243.674)" fill="#cf567e"/>
          </g>
          <path id="Path_1105" data-name="Path 1105" d="M374.631,247.438c-2.4,1.181-3.485,3.53-2.561,5.532a1.023,1.023,0,0,0,1.024.657.952.952,0,0,0,.553-.356,5.275,5.275,0,0,0,.846-1.3,6.207,6.207,0,0,0,1.717,2.779c.239.23.69.47.986.285a.472.472,0,0,0,.185-.281l.306-.92a24.3,24.3,0,0,0,4.517.455c.762,0,1.657-.083,2-.559a1.019,1.019,0,0,0,.13-.739c-.272-2.532-2.877-4.9-6.293-5.723a4.335,4.335,0,0,0-3.41.287" transform="translate(-369.569 -247.062)" fill="#32224c"/>
        </g>
      </g>
    </g>
    <g id="Group_337" data-name="Group 337" transform="translate(296.245 144.121)">
      <path id="Path_1106" data-name="Path 1106" d="M245.4,152.255c-.965-5.625,5.719-10.806,11.725-9.644a11.671,11.671,0,0,1,8.985,13.047c-.953,5.626-6,10.2-11.851,11.923a146.418,146.418,0,0,0,8.548,15.767" transform="translate(-245.307 -142.447)" fill="none" stroke="#fff" stroke-miterlimit="10" stroke-width="0.964"/>
      <path id="Path_1107" data-name="Path 1107" d="M264.886,186.447" transform="translate(-240.938 -132.63)" fill="none" stroke="#fff" stroke-miterlimit="10" stroke-width="0.964"/>
    </g>
    <g id="Group_338" data-name="Group 338" transform="translate(343.579 169.416)">
      <path id="Path_1108" data-name="Path 1108" d="M294.43,164.518c2.306-2.713,7.668-1.213,9.676,2.412s.665,8.15-2.461,9.851-7.5.828-10.831-1.586a89.068,89.068,0,0,0-3.962,10.686" transform="translate(-283.371 -163.128)" fill="none" stroke="#fff" stroke-miterlimit="10" stroke-width="0.626"/>
      <path id="Path_1109" data-name="Path 1109" d="M284.006,188.647" transform="translate(-284.006 -157.434)" fill="none" stroke="#fff" stroke-miterlimit="10" stroke-width="0.626"/>
    </g>
  </g>
</svg>
