<svg xmlns="http://www.w3.org/2000/svg" xmlns:xlink="http://www.w3.org/1999/xlink" width="70" height="81" viewBox="0 0 70 81">
  <defs>
    <linearGradient id="linear-gradient" x1="0.5" x2="0.5" y2="1" gradientUnits="objectBoundingBox">
      <stop offset="0" stop-color="#391168"/>
      <stop offset="1" stop-color="#c471ed"/>
    </linearGradient>
  </defs>
  <g id="layers" transform="translate(-37.634)">
    <path id="Path_609" data-name="Path 609" d="M377.534,95.106l-8.612,4.947L377.533,105l8.611-4.948Z" transform="translate(-278.51 -80.124)" fill="url(#linear-gradient)"/>
    <path id="Path_610" data-name="Path 610" d="M287.237,147.5l8.613,4.947,8.43-4.843-8.612-4.946Z" transform="translate(-209.835 -120.184)" fill="url(#linear-gradient)"/>
    <path id="Path_611" data-name="Path 611" d="M107.612,346.394l-13.381-7.838L72.623,351.218,51.015,338.556l-13.381,7.838,34.989,20.5Z" transform="translate(0 -285.896)" fill="url(#linear-gradient)"/>
    <path id="Path_612" data-name="Path 612" d="M137.951,146.969l-8.613-4.947-8.793,5.051,8.611,4.947Z" transform="translate(-69.703 -119.65)" fill="url(#linear-gradient)"/>
    <path id="Path_613" data-name="Path 613" d="M72.644,220.6l-21.6-12.655L37.634,215.8l34.989,20.5,34.989-20.5L94.22,207.959Z" transform="translate(0 -175.602)" fill="url(#linear-gradient)"/>
    <path id="Path_614" data-name="Path 614" d="M220.734,194.02l-8.785-5.046-8.625,5.15,8.614,4.949Z" transform="translate(-139.296 -159.208)" fill="url(#linear-gradient)"/>
    <path id="Path_615" data-name="Path 615" d="M294.74,57.446l8.612-4.947-8.612-4.947L286.128,52.5Z" transform="translate(-208.906 -39.778)" fill="url(#linear-gradient)"/>
    <path id="Path_616" data-name="Path 616" d="M203.335,4.947l8.613,4.947,8.613-4.947L211.948,0Z" transform="translate(-139.303)" fill="url(#linear-gradient)"/>
    <path id="Path_617" data-name="Path 617" d="M130.263,57.342l8.431-4.843-8.612-4.947L121.651,52.4Z" transform="translate(-70.631 -39.778)" fill="url(#linear-gradient)"/>
    <path id="Path_618" data-name="Path 618" d="M55.17,99.416l-8.612-4.947-8.791,5.049,8.611,4.947Z" transform="translate(-0.111 -79.588)" fill="url(#linear-gradient)"/>
    <path id="Path_619" data-name="Path 619" d="M221.488,100.053l-8.613-4.947-8.431,4.843,8.477,5.025Z" transform="translate(-140.233 -80.124)" fill="url(#linear-gradient)"/>
  </g>
</svg>
