<svg id="Group_39" data-name="Group 39" xmlns="http://www.w3.org/2000/svg" width="58.259" height="54.832" viewBox="0 0 58.259 54.832">
  <g id="Group_37" data-name="Group 37" transform="translate(10.052)">
    <path id="Path_75" data-name="Path 75" d="M447.986,350.731v-10.4l-9-5.2-9,5.2v10.4l9,5.2Z" transform="translate(-409.901 -335.135)" fill="#fff"/>
    <path id="Path_76" data-name="Path 76" d="M422.039,350.731v-10.4l-9-5.2-9,5.2v10.4l9,5.2Z" transform="translate(-404.03 -335.135)" fill="#fff"/>
  </g>
  <path id="Path_77" data-name="Path 77" d="M409.048,372.583v-10.4l-9-5.2-9,5.2v10.4l9,5.2Z" transform="translate(-391.04 -340.079)" fill="#fff"/>
  <path id="Path_78" data-name="Path 78" d="M461.068,372.583v-10.4l-9-5.2-9,5.2v10.4l9,5.2Z" transform="translate(-402.809 -340.079)" fill="#fff"/>
  <path id="Path_79" data-name="Path 79" d="M435.013,372.726v-10.4l-9-5.2-9,5.2v10.4l9,5.2Z" transform="translate(-396.914 -340.111)" fill="#fff"/>
  <g id="Group_38" data-name="Group 38" transform="translate(9.734 34.037)">
    <path id="Path_80" data-name="Path 80" d="M448.4,394.721v-10.4l-9-5.2-9,5.2v10.4l9,5.2Z" transform="translate(-409.676 -379.125)" fill="#fff"/>
    <path id="Path_81" data-name="Path 81" d="M421.629,394.721v-10.4l-9-5.2-9,5.2v10.4l9,5.2Z" transform="translate(-403.62 -379.125)" fill="#fff"/>
  </g>
</svg>
