<svg id="notification" xmlns="http://www.w3.org/2000/svg" xmlns:xlink="http://www.w3.org/1999/xlink" width="61.64" height="67" viewBox="0 0 61.64 67">
  <defs>
    <linearGradient id="linear-gradient" x1="0.5" x2="0.5" y2="1" gradientUnits="objectBoundingBox">
      <stop offset="0" stop-color="#391168"/>
      <stop offset="1" stop-color="#c471ed"/>
    </linearGradient>
  </defs>
  <path id="Path_667" data-name="Path 667" d="M143.883,428.661a10.564,10.564,0,0,1-10.551-10.551,2.11,2.11,0,0,1,4.22,0,6.331,6.331,0,1,0,12.661,0,2.11,2.11,0,1,1,4.22,0A10.564,10.564,0,0,1,143.883,428.661Zm0,0" transform="translate(-115.859 -361.661)" fill="url(#linear-gradient)"/>
  <path id="Path_668" data-name="Path 668" d="M51.112,114.118H4.9a4.868,4.868,0,0,1-3.187-8.576,1.936,1.936,0,0,1,.224-.167A18.667,18.667,0,0,0,8.4,91.259V83.49A19.571,19.571,0,0,1,28.006,64a8.487,8.487,0,0,1,1.381.084A2.088,2.088,0,1,1,28.7,68.2a4.434,4.434,0,0,0-.692-.025A15.377,15.377,0,0,0,12.6,83.49v7.768a22.846,22.846,0,0,1-8.13,17.461c-.042.034-.078.064-.124.095a.686.686,0,0,0-.148.432.706.706,0,0,0,.7.7H51.112a.706.706,0,0,0,.7-.7.663.663,0,0,0-.151-.432c-.042-.031-.078-.061-.121-.095a22.84,22.84,0,0,1-8.13-17.461V88.224a2.1,2.1,0,0,1,4.2,0v3.034a18.673,18.673,0,0,0,6.472,14.125,2.043,2.043,0,0,1,.215.162,4.866,4.866,0,0,1-3.187,8.573Zm0,0" transform="translate(0 -55.559)" fill="url(#linear-gradient)"/>
  <path id="Path_669" data-name="Path 669" d="M270.068,28.136a14.068,14.068,0,1,1,14.068-14.068A14.084,14.084,0,0,1,270.068,28.136Zm0-23.916a9.848,9.848,0,1,0,9.847,9.848,9.859,9.859,0,0,0-9.847-9.848Zm0,0" transform="translate(-222.496)" fill="url(#linear-gradient)"/>
</svg>
