<svg xmlns="http://www.w3.org/2000/svg" xmlns:xlink="http://www.w3.org/1999/xlink" width="375" height="375" viewBox="0 0 375 375">
  <defs>
    <linearGradient id="linear-gradient" x1="0.5" x2="0.5" y2="1" gradientUnits="objectBoundingBox">
      <stop offset="0" stop-color="#391168"/>
      <stop offset="1" stop-color="#c471ed"/>
    </linearGradient>
  </defs>
  <path id="Subtraction_12" data-name="Subtraction 12" d="M189,375h-3a187.377,187.377,0,0,1-37.486-3.779,184.979,184.979,0,0,1-66.509-27.987A186.544,186.544,0,0,1,14.617,261.4,185.064,185.064,0,0,1,3.779,226.486,187.376,187.376,0,0,1,0,189v-3a187.376,187.376,0,0,1,3.779-37.486A184.98,184.98,0,0,1,31.766,82.006,186.544,186.544,0,0,1,113.6,14.617,185.064,185.064,0,0,1,148.515,3.779,187.376,187.376,0,0,1,186,0h3a187.376,187.376,0,0,1,37.486,3.779,184.979,184.979,0,0,1,66.509,27.987A186.544,186.544,0,0,1,360.383,113.6a185.065,185.065,0,0,1,10.838,34.914A187.377,187.377,0,0,1,375,186v3a187.377,187.377,0,0,1-3.779,37.486,184.979,184.979,0,0,1-27.987,66.509A186.544,186.544,0,0,1,261.4,360.383a185.065,185.065,0,0,1-34.914,10.838A187.377,187.377,0,0,1,189,375ZM187.5,45C108.925,45,45,108.925,45,187.5S108.925,330,187.5,330,330,266.075,330,187.5,266.075,45,187.5,45Z" opacity="0.1" fill="url(#linear-gradient)"/>
</svg>
