<svg xmlns="http://www.w3.org/2000/svg" xmlns:xlink="http://www.w3.org/1999/xlink" width="42" height="50" viewBox="0 0 42 50">
  <defs>
    <linearGradient id="linear-gradient" x1="0.5" x2="0.5" y2="1" gradientUnits="objectBoundingBox">
      <stop offset="0" stop-color="#391168"/>
      <stop offset="1" stop-color="#c471ed"/>
    </linearGradient>
  </defs>
  <g id="user" transform="translate(0 0)">
    <path id="Path_115" data-name="Path 115" d="M99.274,23.931a11.984,11.984,0,0,0,8.656-3.506,11.447,11.447,0,0,0,3.586-8.46,11.449,11.449,0,0,0-3.587-8.46,12.44,12.44,0,0,0-17.311,0,11.448,11.448,0,0,0-3.587,8.46,11.447,11.447,0,0,0,3.587,8.46A11.987,11.987,0,0,0,99.274,23.931Zm0,0" transform="translate(-78.587 0)" fill="url(#linear-gradient)"/>
    <path id="Path_116" data-name="Path 116" d="M41.9,261.52a29.185,29.185,0,0,0-.408-3.139,24.464,24.464,0,0,0-.782-3.156,15.485,15.485,0,0,0-1.315-2.943,11.126,11.126,0,0,0-1.983-2.55,8.758,8.758,0,0,0-2.848-1.766,9.958,9.958,0,0,0-3.636-.649,3.718,3.718,0,0,0-1.971.825c-.591.38-1.282.82-2.053,1.306a11.842,11.842,0,0,1-2.656,1.155,10.445,10.445,0,0,1-6.5,0,11.814,11.814,0,0,1-2.654-1.154c-.764-.482-1.455-.921-2.055-1.307a3.713,3.713,0,0,0-1.97-.825,9.946,9.946,0,0,0-3.635.65,8.751,8.751,0,0,0-2.848,1.766A11.127,11.127,0,0,0,2.6,252.281a15.514,15.514,0,0,0-1.315,2.944,24.518,24.518,0,0,0-.782,3.156,29.082,29.082,0,0,0-.408,3.14c-.067.951-.1,1.937-.1,2.934A8.193,8.193,0,0,0,2.482,270.7a9.007,9.007,0,0,0,6.4,2.3H33.12a9,9,0,0,0,6.4-2.3A8.189,8.189,0,0,0,42,264.454c0-1-.035-1.988-.1-2.934Zm0,0" transform="translate(0 -222.998)" fill="url(#linear-gradient)"/>
  </g>
</svg>
