<svg xmlns="http://www.w3.org/2000/svg" width="100" height="100" viewBox="0 0 100 100">
  <g id="value" transform="translate(0.001 -0.496)">
    <g id="Group_343" data-name="Group 343" transform="translate(-0.001 0.496)">
      <g id="Group_342" data-name="Group 342" transform="translate(0)">
        <path id="Path_1110" data-name="Path 1110" d="M81.206,127.43a1.51,1.51,0,0,0-1.264-.715H12.883a1.5,1.5,0,0,0-1.241.7l0,.007-3.942,6.552a1.432,1.432,0,0,0,.512,1.978,1.476,1.476,0,0,0,2.006-.5l2.906-4.828,13.51,15.4H4l2.872-4.843A1.432,1.432,0,0,0,6.35,139.2a1.476,1.476,0,0,0-2,.518l-2.783,4.694L.4,146.367a1.61,1.61,0,0,0-.088,2c.008.009.014.02.022.029l44.967,51.99a1.519,1.519,0,0,0,2.228,0L66.981,177.9l.627-.7a1.429,1.429,0,0,0-.131-2.037,1.479,1.479,0,0,0-2.066.129l-.634.71-.015.018L49.976,193.114,64.082,148.9H88.214L69.752,170.249a1.429,1.429,0,0,0,.164,2.035,1.479,1.479,0,0,0,2.064-.162L92.5,148.4c.006-.007.01-.014.016-.021a1.459,1.459,0,0,0,.318-.659,1.4,1.4,0,0,0-.184-.985ZM16.1,129.6H43.26L29.819,145.241Zm30.321.789,13.429,15.626H32.99ZM4.624,148.9H28.756l14.106,44.21ZM46.419,194.64,31.826,148.9H61.013Zm16.6-49.4L49.579,129.6H76.74Zm3.191.776,13.5-15.389,9.124,15.389Z" transform="translate(0.001 -100.874)" fill="#fff"/>
        <path id="Path_1111" data-name="Path 1111" d="M342.782,12.741a15.636,15.636,0,0,1,4.882,6.375,2.66,2.66,0,0,0,4.878,0,15.636,15.636,0,0,1,4.882-6.375,2.654,2.654,0,0,0,0-4.272,15.639,15.639,0,0,1-4.882-6.375,2.66,2.66,0,0,0-4.878,0,15.637,15.637,0,0,1-4.882,6.375,2.654,2.654,0,0,0,0,4.272ZM350.1,3.709a18.435,18.435,0,0,0,5.358,6.9,18.434,18.434,0,0,0-5.358,6.9,18.437,18.437,0,0,0-5.358-6.9A18.436,18.436,0,0,0,350.1,3.709Z" transform="translate(-274.769 -0.496)" fill="#fff"/>
        <path id="Path_1112" data-name="Path 1112" d="M450.112,76.27a12.831,12.831,0,0,1-4-5.232,2.458,2.458,0,0,0-2.256-1.478h0a2.458,2.458,0,0,0-2.256,1.478,12.832,12.832,0,0,1-4,5.232,2.455,2.455,0,0,0,0,3.952,12.834,12.834,0,0,1,4,5.231,2.46,2.46,0,0,0,4.511,0,12.838,12.838,0,0,1,4-5.232,2.455,2.455,0,0,0,0-3.952Zm-6.259,7.192a15.565,15.565,0,0,0-4.094-5.216,15.563,15.563,0,0,0,4.094-5.216,15.567,15.567,0,0,0,4.094,5.216A15.564,15.564,0,0,0,443.853,83.462Z" transform="translate(-351.111 -56.246)" fill="#fff"/>
      </g>
    </g>
  </g>
</svg>
