<svg xmlns="http://www.w3.org/2000/svg" xmlns:xlink="http://www.w3.org/1999/xlink" width="70" height="70" viewBox="0 0 70 70">
  <defs>
    <linearGradient id="linear-gradient" x1="0.5" x2="0.5" y2="1" gradientUnits="objectBoundingBox">
      <stop offset="0" stop-color="#391168"/>
      <stop offset="1" stop-color="#c471ed"/>
    </linearGradient>
  </defs>
  <g id="Group_349" data-name="Group 349" transform="translate(-405 -2229)">
    <g id="Group_134" data-name="Group 134" transform="translate(405 2229)">
      <g id="Group_133" data-name="Group 133">
        <path id="Path_596" data-name="Path 596" d="M49.518,0H20.482A20.505,20.505,0,0,0,0,20.482V49.518A20.505,20.505,0,0,0,20.482,70H49.518A20.505,20.505,0,0,0,70,49.518V20.482A20.505,20.505,0,0,0,49.518,0ZM67.949,49.518A18.452,18.452,0,0,1,49.518,67.949H20.482A18.452,18.452,0,0,1,2.051,49.518V20.482A18.452,18.452,0,0,1,20.482,2.051H49.518A18.452,18.452,0,0,1,67.949,20.482Z" fill="url(#linear-gradient)"/>
      </g>
    </g>
    <g id="Group_136" data-name="Group 136" transform="translate(408.418 2232.418)">
      <g id="Group_135" data-name="Group 135">
        <path id="Path_597" data-name="Path 597" d="M71.1,25H42.064A17.084,17.084,0,0,0,25,42.064V71.1A17.083,17.083,0,0,0,42.064,88.164H71.1A17.083,17.083,0,0,0,88.164,71.1V42.064A17.083,17.083,0,0,0,71.1,25ZM86.113,71.1A15.03,15.03,0,0,1,71.1,86.113H42.064A15.03,15.03,0,0,1,27.051,71.1V42.064A15.03,15.03,0,0,1,42.064,27.051H71.1A15.031,15.031,0,0,1,86.113,42.064Z" transform="translate(-25 -25)" fill="url(#linear-gradient)"/>
      </g>
    </g>
    <g id="Group_138" data-name="Group 138" transform="translate(429.665 2235.836)">
      <g id="Group_137" data-name="Group 137">
        <rect id="Rectangle_30" data-name="Rectangle 30" width="16.831" height="2.051" fill="url(#linear-gradient)"/>
      </g>
    </g>
    <g id="Group_140" data-name="Group 140" transform="translate(447.864 2235.836)">
      <g id="Group_139" data-name="Group 139">
        <rect id="Rectangle_31" data-name="Rectangle 31" width="2.051" height="2.051" fill="url(#linear-gradient)"/>
      </g>
    </g>
    <g id="Group_142" data-name="Group 142" transform="translate(451.282 2235.836)">
      <g id="Group_141" data-name="Group 141">
        <rect id="Rectangle_32" data-name="Rectangle 32" width="2.051" height="2.051" fill="url(#linear-gradient)"/>
      </g>
    </g>
    <g id="Group_144" data-name="Group 144" transform="translate(411.836 2257.301)">
      <g id="Group_143" data-name="Group 143">
        <rect id="Rectangle_33" data-name="Rectangle 33" width="2.051" height="15.894" fill="url(#linear-gradient)"/>
      </g>
    </g>
    <g id="Group_146" data-name="Group 146" transform="translate(430.748 2290.113)">
      <g id="Group_145" data-name="Group 145">
        <rect id="Rectangle_34" data-name="Rectangle 34" width="2.051" height="2.051" fill="url(#linear-gradient)"/>
      </g>
    </g>
    <g id="Group_148" data-name="Group 148" transform="translate(427.33 2290.113)">
      <g id="Group_147" data-name="Group 147">
        <rect id="Rectangle_35" data-name="Rectangle 35" width="2.051" height="2.051" fill="url(#linear-gradient)"/>
      </g>
    </g>
    <g id="Group_150" data-name="Group 150" transform="translate(434.166 2290.113)">
      <g id="Group_149" data-name="Group 149">
        <rect id="Rectangle_36" data-name="Rectangle 36" width="2.051" height="2.051" fill="url(#linear-gradient)"/>
      </g>
    </g>
    <g id="Group_152" data-name="Group 152" transform="translate(459.632 2242.448)">
      <g id="Group_151" data-name="Group 151" transform="translate(0 0)">
        <rect id="Rectangle_37" data-name="Rectangle 37" width="1" height="3" transform="translate(0.368 -0.448)" fill="url(#linear-gradient)"/>
      </g>
    </g>
    <g id="Group_154" data-name="Group 154" transform="translate(459.632 2283.632)">
      <g id="Group_153" data-name="Group 153" transform="translate(0 0)">
        <rect id="Rectangle_38" data-name="Rectangle 38" width="1" height="1" transform="translate(0.368 0.368)" fill="url(#linear-gradient)"/>
      </g>
    </g>
    <g id="Group_156" data-name="Group 156" transform="translate(455.009 2238.404)">
      <g id="Group_155" data-name="Group 155">
        <path id="Path_598" data-name="Path 598" d="M371.075,68.781a5.294,5.294,0,1,0,5.294,5.294A5.3,5.3,0,0,0,371.075,68.781Zm0,8.536a3.243,3.243,0,1,1,3.243-3.243A3.247,3.247,0,0,1,371.075,77.317Z" transform="translate(-365.781 -68.781)" fill="url(#linear-gradient)"/>
      </g>
    </g>
    <g id="Group_158" data-name="Group 158" transform="translate(455.009 2279.009)">
      <g id="Group_157" data-name="Group 157">
        <path id="Path_599" data-name="Path 599" d="M371.075,365.781a5.294,5.294,0,1,0,5.294,5.294A5.3,5.3,0,0,0,371.075,365.781Zm0,8.536a3.243,3.243,0,1,1,3.243-3.243A3.247,3.247,0,0,1,371.075,374.317Z" transform="translate(-365.781 -365.781)" fill="url(#linear-gradient)"/>
      </g>
    </g>
    <g id="Group_160" data-name="Group 160" transform="translate(418.448 2242.448)">
      <g id="Group_159" data-name="Group 159" transform="translate(0 0)">
        <rect id="Rectangle_39" data-name="Rectangle 39" width="3" height="3" transform="translate(-0.448 -0.448)" fill="url(#linear-gradient)"/>
      </g>
    </g>
    <g id="Group_162" data-name="Group 162" transform="translate(418.448 2283.632)">
      <g id="Group_161" data-name="Group 161" transform="translate(0 0)">
        <rect id="Rectangle_40" data-name="Rectangle 40" width="3" height="1" transform="translate(-0.448 0.368)" fill="url(#linear-gradient)"/>
      </g>
    </g>
    <g id="Group_164" data-name="Group 164" transform="translate(414.404 2238.404)">
      <g id="Group_163" data-name="Group 163">
        <path id="Path_600" data-name="Path 600" d="M74.075,68.781a5.294,5.294,0,1,0,5.293,5.294A5.3,5.3,0,0,0,74.075,68.781Zm0,8.536a3.243,3.243,0,1,1,3.243-3.243A3.247,3.247,0,0,1,74.075,77.317Z" transform="translate(-68.782 -68.781)" fill="url(#linear-gradient)"/>
      </g>
    </g>
    <g id="Group_166" data-name="Group 166" transform="translate(414.404 2279.009)">
      <g id="Group_165" data-name="Group 165">
        <path id="Path_601" data-name="Path 601" d="M74.075,365.781a5.294,5.294,0,1,0,5.293,5.294A5.3,5.3,0,0,0,74.075,365.781Zm0,8.536a3.243,3.243,0,1,1,3.243-3.243A3.246,3.246,0,0,1,74.075,374.317Z" transform="translate(-68.782 -365.781)" fill="url(#linear-gradient)"/>
      </g>
    </g>
    <g id="Group_168" data-name="Group 168" transform="translate(424.509 2248.509)">
      <g id="Group_167" data-name="Group 167">
        <path id="Path_602" data-name="Path 602" d="M147.968,144.093v2.423l-3.821-3.821-1.45,1.45,3.821,3.821h-2.423v2.051h5.924v-5.924Z" transform="translate(-142.697 -142.696)" fill="url(#linear-gradient)"/>
      </g>
    </g>
    <g id="Group_170" data-name="Group 170" transform="translate(424.509 2272.169)">
      <g id="Group_169" data-name="Group 169">
        <path id="Path_603" data-name="Path 603" d="M144.094,315.75V317.8h2.423l-3.821,3.821,1.45,1.45,3.821-3.821v2.423h2.051V315.75Z" transform="translate(-142.697 -315.75)" fill="url(#linear-gradient)"/>
      </g>
    </g>
    <g id="Group_172" data-name="Group 172" transform="translate(448.169 2248.509)">
      <g id="Group_171" data-name="Group 171">
        <path id="Path_604" data-name="Path 604" d="M323.072,144.146l-1.45-1.45-3.821,3.821v-2.423H315.75v5.924h5.924v-2.051h-2.423Z" transform="translate(-315.75 -142.696)" fill="url(#linear-gradient)"/>
      </g>
    </g>
    <g id="Group_348" data-name="Group 348" transform="translate(-600)">
      <g id="Group_174" data-name="Group 174" transform="translate(1048.169 2272.169)">
        <g id="Group_173" data-name="Group 173">
          <path id="Path_605" data-name="Path 605" d="M319.251,317.8h2.423V315.75H315.75v5.924H317.8v-2.423l3.821,3.821,1.45-1.45Z" transform="translate(-315.75 -315.75)" fill="url(#linear-gradient)"/>
        </g>
      </g>
    </g>
  </g>
</svg>
